if (_typeface_js && _typeface_js.loadFace) _typeface_js.loadFace({"glyphs":{"S":{"x_min":56,"x_max":812,"ha":868,"o":"m 275 0 l 63 0 l 63 302 l 275 302 q 418 179 313 179 q 494 240 494 179 q 468 293 494 271 q 348 356 439 316 q 178 447 232 409 q 91 542 127 481 q 56 676 56 603 q 141 882 56 808 q 350 956 226 956 q 560 885 474 956 l 560 943 l 774 943 l 774 675 l 563 675 q 426 786 524 786 q 357 727 357 786 q 376 684 357 698 q 499 618 395 669 q 685 517 638 549 q 733 473 708 501 q 774 415 758 445 q 812 272 812 349 q 723 71 812 153 q 501 -12 635 -12 q 275 62 376 -12 l 275 0 "},"¦":{"x_min":358,"x_max":528,"ha":888,"o":"m 358 -298 l 358 231 l 528 231 l 528 -298 l 358 -298 m 358 433 l 358 962 l 528 962 l 528 433 l 358 433 "},"/":{"x_min":0,"x_max":389.296875,"ha":390,"o":"m 157 -15 l 0 -15 l 229 962 l 389 962 l 157 -15 "},"y":{"x_min":14,"x_max":885.890625,"ha":911,"o":"m 460 -302 l 173 -302 l 173 -101 l 283 -101 l 316 -34 l 64 451 l 14 451 l 14 658 l 462 658 l 462 451 l 389 451 l 504 193 l 609 451 l 546 451 l 546 658 l 885 658 l 885 451 l 820 451 l 460 -302 "},"≈":{"x_min":83,"x_max":845,"ha":928,"o":"m 845 444 l 845 271 q 734 197 788 221 q 628 174 680 174 q 536 191 580 174 q 429 239 487 210 q 292 283 339 283 q 83 180 190 283 l 83 354 q 305 451 193 451 q 488 393 372 451 q 643 341 591 341 q 845 444 732 341 m 845 771 l 845 599 q 734 526 788 550 q 628 503 680 503 q 544 517 586 503 q 429 567 506 530 q 292 611 337 611 q 83 509 190 611 l 83 682 q 305 778 194 778 q 488 720 372 778 q 643 669 592 669 q 845 771 732 669 "},"Á":{"x_min":15,"x_max":1040,"ha":1055,"o":"m 477 704 l 388 443 l 557 443 l 477 704 m 388 0 l 15 0 l 15 225 l 86 225 l 263 716 l 187 716 l 187 943 l 866 943 l 866 716 l 790 716 l 970 225 l 1040 225 l 1040 0 l 547 0 l 547 207 l 630 207 l 594 326 l 352 326 l 311 207 l 388 207 l 388 0 m 573 1000 l 412 1000 l 540 1246 l 854 1246 l 573 1000 "},"g":{"x_min":60,"x_max":1061,"ha":1100,"o":"m 405 324 q 435 224 405 264 q 522 184 466 184 q 611 225 582 184 q 640 326 640 265 q 609 434 640 392 q 523 476 577 476 q 435 431 466 476 q 405 324 405 388 m 116 -242 l 210 -75 q 423 -109 289 -109 q 561 -84 511 -109 q 625 -26 611 -59 q 639 67 639 6 q 410 16 536 16 q 162 100 263 16 q 60 331 60 183 q 166 578 60 487 q 422 670 272 670 q 639 616 546 670 l 639 658 l 1061 658 l 1061 451 l 978 451 l 978 90 q 957 -95 978 -29 q 877 -206 934 -160 q 732 -275 819 -254 q 504 -298 646 -298 q 390 -293 440 -298 q 276 -280 340 -289 q 116 -242 166 -262 "},"²":{"x_min":45,"x_max":510,"ha":564,"o":"m 379 623 l 510 623 l 504 448 l 46 448 q 45 475 45 475 q 79 601 45 546 q 202 713 114 658 q 296 779 276 760 q 316 814 316 797 q 266 848 316 848 q 213 797 213 848 q 213 782 213 788 l 53 786 q 276 962 54 962 q 444 919 380 962 q 506 807 506 876 q 474 724 506 762 q 350 645 441 685 q 232 583 253 604 l 377 583 l 379 623 "},"–":{"x_min":-8,"x_max":703,"ha":695,"o":"m -8 197 l -8 459 l 703 459 l 703 197 l -8 197 "},"ë":{"x_min":61,"x_max":909,"ha":970,"o":"m 395 380 l 587 380 q 588 403 588 400 q 561 492 588 456 q 489 527 534 527 q 418 488 443 527 q 394 393 394 450 q 395 380 394 386 m 612 208 l 893 173 q 840 94 874 129 q 757 33 806 59 q 522 -19 659 -19 q 176 76 292 -19 q 61 325 61 171 q 175 576 61 476 q 482 677 288 677 q 786 582 669 677 q 909 295 901 487 l 391 295 q 510 135 393 135 q 612 208 580 135 m 786 875 q 749 786 786 823 q 659 749 711 749 q 570 786 607 749 q 533 875 533 823 q 570 964 533 926 q 659 1001 608 1001 q 749 964 712 1001 q 786 875 786 926 m 435 875 q 398 786 435 824 q 309 749 362 749 q 219 786 256 749 q 183 875 183 824 q 220 964 183 926 q 309 1001 257 1001 q 398 964 361 1001 q 435 875 435 926 "},"ƒ":{"x_min":16.375,"x_max":751.453125,"ha":766,"o":"m 577 682 l 666 682 l 619 468 l 529 468 l 417 -51 q 375 -182 401 -129 q 317 -259 350 -235 q 175 -311 251 -311 l 16 -311 l 56 -124 q 123 -94 105 -121 q 150 -14 139 -67 l 255 468 l 169 468 l 215 682 l 302 682 l 322 777 q 381 908 337 848 q 478 980 425 967 q 557 994 532 994 l 751 994 l 712 811 q 687 812 690 812 q 617 794 637 812 q 587 727 598 776 l 577 682 "},"Î":{"x_min":14.109375,"x_max":620.4375,"ha":636,"o":"m 587 0 l 49 0 l 49 225 l 135 225 l 135 717 l 49 717 l 49 943 l 587 943 l 587 717 l 500 717 l 500 225 l 587 225 l 587 0 m 207 1000 l 14 1000 l 154 1246 l 482 1246 l 620 1000 l 431 1000 l 315 1094 l 207 1000 "},"e":{"x_min":61,"x_max":909,"ha":970,"o":"m 395 380 l 587 380 q 588 403 588 400 q 561 492 588 456 q 489 527 534 527 q 418 488 443 527 q 394 393 394 450 q 395 380 394 386 m 612 208 l 893 173 q 840 94 874 129 q 757 33 806 59 q 522 -19 659 -19 q 176 76 292 -19 q 61 325 61 171 q 175 576 61 476 q 482 677 288 677 q 786 582 669 677 q 909 295 901 487 l 391 295 q 510 135 393 135 q 612 208 580 135 "},"Ã":{"x_min":15,"x_max":1040,"ha":1055,"o":"m 477 704 l 388 443 l 557 443 l 477 704 m 388 0 l 15 0 l 15 225 l 86 225 l 263 716 l 187 716 l 187 943 l 866 943 l 866 716 l 790 716 l 970 225 l 1040 225 l 1040 0 l 547 0 l 547 207 l 630 207 l 594 326 l 352 326 l 311 207 l 388 207 l 388 0 m 379 1002 l 228 1002 q 289 1179 237 1117 q 414 1241 340 1241 q 546 1203 465 1241 q 619 1182 596 1182 q 676 1243 663 1182 l 827 1243 q 772 1068 822 1134 q 638 1002 721 1002 q 515 1036 584 1002 q 440 1062 462 1062 q 379 1002 390 1062 "},"J":{"x_min":27.8125,"x_max":580.5625,"ha":623,"o":"m 27 -278 l 27 -47 q 67 -52 49 -52 q 123 -23 111 -52 q 134 122 134 7 l 134 716 l 48 716 l 48 943 l 580 943 l 580 716 l 499 716 l 499 164 q 491 -52 499 10 q 444 -173 483 -115 q 341 -260 404 -231 q 166 -290 278 -290 q 27 -278 102 -290 "},"»":{"x_min":39,"x_max":1007,"ha":1071,"o":"m 853 0 l 546 0 l 695 330 l 546 658 l 853 658 l 1007 330 l 853 0 m 350 0 l 39 0 l 192 330 l 39 658 l 350 658 l 504 330 l 350 0 "},"∆":{"x_min":19.671875,"x_max":833.53125,"ha":854,"o":"m 833 0 l 19 0 l 445 940 l 833 0 m 673 55 l 402 711 l 104 55 l 673 55 "},"©":{"x_min":38,"x_max":1075,"ha":1114,"o":"m 679 372 l 804 338 q 561 153 746 153 q 413 192 477 153 q 319 296 350 229 q 289 441 289 363 q 364 652 289 572 q 562 732 439 732 q 723 680 664 732 q 800 556 782 627 l 679 533 q 557 635 652 635 q 460 587 495 635 q 424 448 424 539 q 553 250 424 250 q 679 372 649 250 m 556 860 q 261 738 384 860 q 140 443 140 616 q 262 149 140 271 q 556 27 384 27 q 850 149 728 27 q 973 443 973 271 q 850 738 973 616 q 556 860 727 860 m 556 962 q 809 895 685 962 q 1003 705 931 829 q 1075 443 1075 581 q 922 78 1075 229 q 556 -75 771 -75 q 191 78 342 -75 q 38 443 38 230 q 109 705 38 581 q 162 780 132 744 q 226 844 192 816 q 302 894 260 871 q 426 945 363 928 q 556 962 489 962 "},"˘":{"x_min":-72,"x_max":536,"ha":463,"o":"m -72 963 l 83 963 q 236 888 110 888 q 378 963 351 888 l 536 963 q 447 791 532 857 q 224 726 361 726 q 17 790 96 726 q -72 963 -61 855 "},"≥":{"x_min":83,"x_max":845,"ha":928,"o":"m 83 -52 l 83 117 l 845 117 l 845 -52 l 83 -52 m 83 824 l 83 1004 l 845 688 l 845 535 l 83 220 l 83 399 l 610 611 l 83 824 "},"ò":{"x_min":60,"x_max":982,"ha":1042,"o":"m 405 331 q 517 174 405 174 q 636 332 636 174 q 607 445 636 405 q 523 485 577 485 q 437 445 470 485 q 405 331 405 406 m 60 332 q 182 577 60 477 q 511 677 304 677 q 851 580 720 677 q 982 329 982 484 q 857 80 982 180 q 527 -19 732 -19 q 183 80 306 -19 q 60 332 60 179 m 538 973 l 667 726 l 505 726 l 225 973 l 538 973 "},"^":{"x_min":130.21875,"x_max":784.703125,"ha":917,"o":"m 324 469 l 130 469 l 385 1011 l 536 1011 l 784 469 l 592 469 l 457 801 l 324 469 "},"«":{"x_min":64,"x_max":1032,"ha":1071,"o":"m 217 658 l 524 658 l 375 327 l 524 0 l 217 0 l 64 327 l 217 658 m 720 658 l 1032 658 l 878 327 l 1032 0 l 720 0 l 566 327 l 720 658 "},"D":{"x_min":70.078125,"x_max":1146,"ha":1215,"o":"m 510 718 l 510 226 l 544 226 q 712 294 673 226 q 750 466 750 363 q 733 590 750 529 q 674 684 716 651 q 523 718 632 718 l 510 718 m 510 0 l 70 0 l 70 225 l 144 225 l 144 717 l 70 717 l 70 943 l 522 943 q 775 924 677 943 q 960 846 873 905 q 1095 684 1046 786 q 1133 580 1120 635 q 1146 463 1146 524 q 1093 239 1146 341 q 962 86 1042 139 q 793 16 885 32 q 510 0 701 0 "},"∙":{"x_min":106,"x_max":445,"ha":550,"o":"m 445 352 l 106 352 l 106 600 l 445 600 l 445 352 "},"ÿ":{"x_min":14,"x_max":885.890625,"ha":911,"o":"m 460 -302 l 173 -302 l 173 -101 l 283 -101 l 316 -34 l 64 451 l 14 451 l 14 658 l 462 658 l 462 451 l 389 451 l 504 193 l 609 451 l 546 451 l 546 658 l 885 658 l 885 451 l 820 451 l 460 -302 m 751 875 q 714 786 751 823 q 624 749 676 749 q 535 786 572 749 q 498 875 498 823 q 535 964 498 926 q 624 1001 573 1001 q 714 964 677 1001 q 751 875 751 926 m 400 875 q 363 786 400 824 q 274 749 327 749 q 184 786 221 749 q 148 875 148 824 q 185 964 148 926 q 274 1001 222 1001 q 363 964 326 1001 q 400 875 400 926 "},"í":{"x_min":48.171875,"x_max":578.65625,"ha":564,"o":"m 514 0 l 48 0 l 48 206 l 116 206 l 116 451 l 48 451 l 48 658 l 458 658 l 458 206 l 514 206 l 514 0 m 297 726 l 136 726 l 264 972 l 578 972 l 297 726 "},"ˆ":{"x_min":-71.890625,"x_max":534.4375,"ha":463,"o":"m 121 726 l -71 726 l 68 972 l 396 972 l 534 726 l 345 726 l 229 820 l 121 726 "},"w":{"x_min":29,"x_max":1389,"ha":1418,"o":"m 570 -8 l 301 -8 l 99 451 l 29 451 l 29 658 l 472 658 l 472 451 l 406 451 l 484 232 l 646 658 l 899 658 l 1047 232 l 1131 451 l 1068 451 l 1068 658 l 1389 658 l 1389 451 l 1324 451 l 1133 -8 l 862 -8 l 712 329 l 570 -8 "},"$":{"x_min":41.96875,"x_max":829,"ha":868,"o":"m 480 339 l 480 115 q 623 220 623 121 q 480 339 623 301 m 390 614 l 390 809 q 243 717 243 802 q 267 667 243 690 q 390 614 293 642 m 390 124 l 390 365 q 130 491 201 417 q 58 663 58 564 q 147 859 58 785 q 390 943 236 934 l 390 979 l 480 979 l 480 943 q 723 865 635 935 q 812 690 812 795 q 811 668 812 677 l 599 668 q 568 759 599 728 q 480 801 536 790 l 480 587 q 760 447 692 525 q 829 266 829 366 q 742 72 829 155 q 480 -14 656 -8 l 480 -116 l 390 -116 l 390 -10 q 118 88 194 10 q 41 249 41 166 q 44 276 41 257 l 265 276 q 390 124 262 154 "},"∫":{"x_min":-2.03125,"x_max":377.765625,"ha":376,"o":"m 134 417 l 143 704 q 161 889 147 836 q 188 969 174 942 q 232 1018 202 997 q 293 1038 263 1038 q 349 1017 322 1038 q 377 965 377 996 q 360 915 377 935 q 315 895 343 895 q 263 918 291 895 q 236 932 248 932 q 209 889 209 932 q 215 790 209 861 q 240 328 240 513 q 232 21 240 293 q 180 -313 224 -251 q 78 -375 135 -375 q 18 -350 40 -375 q -2 -293 -2 -326 q 15 -244 -2 -262 q 59 -225 32 -225 q 106 -248 86 -225 q 139 -268 125 -268 q 165 -227 165 -268 q 159 -145 165 -198 q 134 417 134 67 "},"\\":{"x_min":0,"x_max":389,"ha":390,"o":"m 159 962 l 389 -15 l 232 -15 l 0 962 l 159 962 "},"Ì":{"x_min":-25,"x_max":587,"ha":636,"o":"m 587 0 l 49 0 l 49 225 l 135 225 l 135 717 l 49 717 l 49 943 l 587 943 l 587 717 l 500 717 l 500 225 l 587 225 l 587 0 m 288 1247 l 417 1000 l 255 1000 l -25 1247 l 288 1247 "},"µ":{"x_min":135.640625,"x_max":790.8125,"ha":926,"o":"m 135 720 l 324 720 l 324 394 q 357 194 324 252 q 459 136 389 136 q 541 168 505 136 q 587 248 577 200 q 598 392 598 296 l 598 720 l 790 720 l 790 0 l 613 0 l 613 86 q 468 -17 557 -17 q 391 3 423 -17 q 324 86 358 25 l 324 -276 l 135 -276 l 135 720 "},"Ç":{"x_min":68,"x_max":1056,"ha":1114,"o":"m 800 880 l 800 943 l 1026 943 l 1026 598 l 791 598 q 729 700 773 663 q 630 737 686 737 q 477 474 477 737 q 635 209 477 209 q 811 415 775 209 l 1056 329 q 1003 188 1039 251 q 912 81 967 126 q 638 -15 801 -10 q 797 -159 797 -46 q 728 -269 797 -230 q 532 -309 659 -309 q 348 -295 429 -309 l 359 -204 q 402 -207 376 -207 q 497 -160 497 -207 q 453 -127 497 -127 q 427 -129 443 -127 l 445 -56 q 555 -15 485 -28 q 338 31 457 -15 q 143 199 218 78 q 68 470 68 320 q 193 816 68 671 q 529 962 318 962 q 800 880 695 962 "},"’":{"x_min":106,"x_max":445,"ha":550,"o":"m 106 422 l 106 554 q 188 571 160 554 q 224 609 217 588 q 232 696 231 632 l 106 696 l 106 943 l 445 943 l 445 732 q 436 576 445 618 q 389 493 428 533 q 293 437 350 453 q 106 422 236 422 "},"-":{"x_min":69,"x_max":554,"ha":623,"o":"m 554 182 l 69 182 l 69 475 l 554 475 l 554 182 "},"Q":{"x_min":69,"x_max":1133,"ha":1202,"o":"m 478 474 q 509 262 478 317 q 600 207 538 207 q 692 260 662 207 q 723 474 723 314 q 693 685 723 629 q 600 741 664 741 q 509 687 539 741 q 478 474 478 634 m 616 -14 q 722 -40 669 -24 q 920 -75 842 -75 q 983 -69 947 -75 l 904 -289 q 875 -290 878 -290 q 683 -234 803 -290 q 557 -183 602 -197 q 462 -170 514 -170 q 334 -205 385 -170 l 235 -75 q 449 0 313 -4 q 182 159 296 34 q 69 464 69 283 q 214 818 69 674 q 600 962 359 962 q 989 817 846 962 q 1133 474 1133 671 q 986 129 1133 271 q 616 -14 840 -14 "},"M":{"x_min":58,"x_max":1477.03125,"ha":1533,"o":"m 425 0 l 60 0 l 60 225 l 132 225 l 132 716 l 58 716 l 58 943 l 627 943 l 766 579 l 909 943 l 1475 943 l 1475 716 l 1401 716 l 1401 225 l 1477 225 l 1477 0 l 984 0 l 984 225 l 1059 225 l 1059 751 l 774 0 l 633 0 l 351 744 l 351 225 l 425 225 l 425 0 "},"C":{"x_min":68,"x_max":1056,"ha":1114,"o":"m 811 415 l 1056 329 q 912 82 1024 178 q 600 -15 799 -15 q 198 126 329 -15 q 68 471 68 267 q 196 818 68 675 q 529 962 324 962 q 800 880 695 962 l 800 943 l 1026 943 l 1026 598 l 791 598 q 729 700 773 663 q 630 737 686 737 q 477 473 477 737 q 635 209 477 209 q 811 415 775 209 "},"œ":{"x_min":58,"x_max":1492,"ha":1549,"o":"m 403 329 q 435 212 403 253 q 521 172 467 172 q 637 331 637 172 q 606 444 637 404 q 523 485 574 485 q 437 446 470 485 q 403 329 403 405 m 976 381 l 1171 381 q 1144 488 1171 449 q 1074 526 1116 526 q 976 381 983 526 m 1196 208 l 1475 171 q 1348 38 1446 96 q 1095 -19 1249 -19 q 806 44 920 -19 q 509 -19 708 -19 q 171 86 286 -19 q 58 334 58 191 q 181 580 58 483 q 517 677 304 677 q 806 612 704 677 q 1074 677 914 677 q 1242 652 1167 677 q 1374 577 1316 627 q 1492 295 1489 478 l 977 295 l 977 275 q 1010 170 977 205 q 1093 134 1044 134 q 1196 208 1156 134 "},"!":{"x_min":106,"x_max":445,"ha":550,"o":"m 445 0 l 106 0 l 106 247 l 445 247 l 445 0 m 390 379 l 158 379 l 111 672 l 111 943 l 439 943 l 439 677 l 390 379 "},"ç":{"x_min":62,"x_max":908,"ha":956,"o":"m 539 -18 q 638 -65 602 -26 q 674 -152 674 -103 q 611 -262 674 -214 q 430 -311 549 -311 q 318 -300 362 -311 l 318 -223 q 442 -168 442 -223 q 405 -133 442 -133 q 369 -140 388 -133 l 369 -53 q 470 -17 410 -29 q 301 12 407 -17 q 129 127 198 41 q 62 325 62 211 q 173 573 62 476 q 450 670 283 670 q 668 614 591 670 l 668 658 l 876 658 l 876 377 l 668 377 q 537 490 629 490 q 440 441 474 490 q 407 321 407 392 q 443 201 407 245 q 537 157 479 157 q 653 270 632 157 l 908 213 q 539 -18 844 0 "},"È":{"x_min":62,"x_max":963,"ha":1042,"o":"m 963 0 l 63 0 l 63 225 l 136 225 l 136 716 l 62 716 l 62 943 l 963 943 l 963 640 l 715 640 l 715 716 l 501 716 l 501 572 l 687 572 l 687 380 l 501 380 l 501 226 l 715 226 l 715 301 l 963 301 l 963 0 m 532 1247 l 661 1000 l 499 1000 l 219 1247 l 532 1247 "},"{":{"x_min":39.46875,"x_max":502.359375,"ha":541,"o":"m 39 278 l 39 440 q 147 484 116 441 q 183 579 178 524 q 188 695 188 632 q 199 861 188 808 q 241 946 210 912 q 324 995 273 979 q 466 1011 377 1011 l 502 1011 l 502 848 q 388 830 412 848 q 364 750 364 812 q 339 480 364 550 q 237 359 314 408 q 331 258 299 325 q 363 -31 363 190 q 377 -98 363 -79 q 415 -123 391 -117 q 501 -129 439 -129 l 501 -292 l 466 -292 q 289 -261 349 -292 q 208 -173 229 -231 q 188 23 188 -116 q 176 179 188 129 q 133 250 165 225 q 39 278 101 274 "},"X":{"x_min":36,"x_max":1353,"ha":1389,"o":"m 582 0 l 36 0 l 36 225 l 141 225 l 451 467 l 141 717 l 41 717 l 41 943 l 669 943 l 669 744 l 575 744 l 734 606 l 874 744 l 793 744 l 793 943 l 1317 943 l 1317 717 l 1175 717 l 921 504 l 1258 225 l 1353 225 l 1353 0 l 717 0 l 717 198 l 816 198 l 642 356 l 482 198 l 582 198 l 582 0 "},"ô":{"x_min":60,"x_max":982,"ha":1042,"o":"m 405 331 q 517 174 405 174 q 636 332 636 174 q 607 445 636 405 q 523 485 577 485 q 437 445 470 485 q 405 331 405 406 m 60 332 q 182 577 60 477 q 511 677 304 677 q 851 580 720 677 q 982 329 982 484 q 857 80 982 180 q 527 -19 732 -19 q 183 80 306 -19 q 60 332 60 179 m 411 726 l 218 726 l 358 972 l 686 972 l 824 726 l 635 726 l 519 820 l 411 726 "},"¼":{"x_min":109,"x_max":1307,"ha":1346,"o":"m 943 269 l 1071 269 l 1071 382 l 943 269 m 1307 0 l 1000 0 l 1000 122 l 1071 122 l 1071 158 l 835 158 l 799 275 l 1067 514 l 1249 514 l 1249 269 l 1307 269 l 1307 158 l 1249 158 l 1249 122 l 1307 122 l 1307 0 m 457 448 l 109 448 l 109 583 l 188 583 l 188 775 q 140 772 169 772 q 109 773 126 772 l 109 903 l 130 903 q 226 922 184 903 q 287 962 268 939 l 381 962 l 381 583 l 457 583 l 457 448 m 1082 962 l 447 -14 l 298 -14 l 933 962 l 1082 962 "},"#":{"x_min":50.78125,"x_max":877.90625,"ha":928,"o":"m 555 383 l 594 570 l 371 570 l 332 383 l 555 383 m 50 716 l 256 716 l 309 969 l 456 969 l 402 716 l 625 716 l 679 969 l 825 969 l 772 716 l 877 716 l 877 570 l 741 570 l 702 383 l 877 383 l 877 237 l 671 237 l 618 -16 l 472 -16 l 524 237 l 302 237 l 249 -16 l 103 -16 l 155 237 l 50 237 l 50 383 l 187 383 l 225 570 l 50 570 l 50 716 "},"Ê":{"x_min":62,"x_max":963,"ha":1042,"o":"m 963 0 l 63 0 l 63 225 l 136 225 l 136 716 l 62 716 l 62 943 l 963 943 l 963 640 l 715 640 l 715 716 l 501 716 l 501 572 l 687 572 l 687 380 l 501 380 l 501 226 l 715 226 l 715 301 l 963 301 l 963 0 m 402 1000 l 209 1000 l 349 1246 l 677 1246 l 815 1000 l 626 1000 l 510 1094 l 402 1000 "},")":{"x_min":55,"x_max":569,"ha":636,"o":"m 55 784 l 55 962 q 414 764 258 918 q 569 334 569 611 q 514 53 569 170 q 336 -157 459 -63 q 55 -290 213 -251 l 55 -114 q 172 -2 121 -95 q 223 318 223 90 q 184 640 223 539 q 55 784 146 739 "},"Å":{"x_min":15,"x_max":1040,"ha":1055,"o":"m 477 702 l 388 443 l 557 443 l 477 702 m 635 1051 q 605 1127 635 1094 q 527 1160 573 1160 q 450 1128 482 1160 q 418 1051 418 1094 q 450 974 418 1006 q 527 943 482 943 q 603 974 571 943 q 635 1051 635 1006 m 187 943 l 373 943 q 339 1051 339 991 q 394 1184 339 1129 q 527 1240 449 1240 q 660 1184 605 1240 q 715 1051 715 1129 q 681 943 715 993 l 866 943 l 866 716 l 790 716 l 970 225 l 1040 225 l 1040 0 l 547 0 l 547 207 l 630 207 l 594 326 l 352 326 l 311 207 l 388 207 l 388 0 l 15 0 l 15 225 l 86 225 l 263 716 l 187 716 l 187 943 "},"ø":{"x_min":60,"x_max":982,"ha":1042,"o":"m 633 375 l 453 194 q 516 174 481 174 q 607 217 578 174 q 636 327 636 259 q 633 375 636 346 m 409 280 l 590 461 q 523 485 563 485 q 438 447 472 485 q 405 327 405 409 q 409 280 405 304 m 891 633 l 843 586 q 982 329 982 485 q 915 139 982 222 q 840 67 883 98 q 748 18 798 37 q 527 -19 647 -19 q 282 23 392 -19 l 209 -50 l 142 14 l 198 69 q 60 332 60 170 q 183 577 60 478 q 511 677 306 677 q 759 631 647 677 l 824 695 l 891 633 "},"â":{"x_min":54.890625,"x_max":1003,"ha":1042,"o":"m 578 168 l 578 288 q 481 313 532 313 q 410 288 436 313 q 384 224 384 263 q 411 159 384 184 q 474 134 438 134 q 578 168 538 134 m 322 474 l 54 501 q 197 637 99 598 q 483 677 294 677 q 608 672 553 677 q 707 659 664 668 q 841 607 797 642 q 901 529 884 571 q 918 396 918 487 l 918 206 l 1003 206 l 1003 0 l 578 0 l 578 45 q 341 -12 489 -12 q 132 49 202 -12 q 61 193 61 110 q 148 344 61 285 q 375 404 235 404 q 578 370 502 404 l 578 389 q 569 475 578 450 q 527 519 559 501 q 448 537 493 537 q 322 474 366 537 m 419 726 l 226 726 l 366 972 l 694 972 l 832 726 l 643 726 l 527 820 l 419 726 "},"}":{"x_min":37.640625,"x_max":500.53125,"ha":541,"o":"m 500 440 l 500 278 q 407 251 438 275 q 364 179 376 226 q 352 23 352 131 q 341 -142 352 -92 q 299 -226 329 -195 q 215 -275 268 -260 q 74 -292 164 -292 l 38 -292 l 38 -129 q 149 -110 124 -129 q 176 -31 176 -91 q 201 239 176 164 q 302 359 227 316 q 198 488 219 409 q 176 750 176 566 q 150 832 176 815 q 37 848 125 848 l 37 1011 l 73 1011 q 259 977 210 1011 q 330 899 308 944 q 352 695 352 853 q 363 540 352 588 q 406 468 374 493 q 500 440 438 443 "},"‰":{"x_min":33,"x_max":1762,"ha":1795,"o":"m 1464 254 q 1476 146 1464 172 q 1513 121 1488 121 q 1551 148 1540 121 q 1563 253 1563 177 q 1550 361 1563 334 q 1513 387 1538 387 q 1475 360 1486 387 q 1464 254 1464 332 m 1265 253 q 1336 443 1265 372 q 1513 514 1408 514 q 1691 442 1619 514 q 1762 253 1762 370 q 1691 65 1762 137 q 1513 -6 1619 -6 q 1338 62 1412 -6 q 1265 253 1265 130 m 900 254 q 912 146 900 172 q 950 121 924 121 q 988 150 977 121 q 999 253 999 180 q 987 361 999 334 q 949 387 975 387 q 911 360 922 387 q 900 254 900 332 m 701 253 q 774 444 701 375 q 949 514 847 514 q 1127 442 1055 514 q 1198 253 1198 370 q 1125 63 1198 131 q 949 -6 1051 -6 q 774 62 848 -6 q 701 253 701 130 m 230 702 q 242 594 230 620 q 280 569 254 569 q 319 598 308 569 q 330 702 330 626 q 317 809 330 782 q 280 835 305 835 q 242 809 254 835 q 230 702 230 784 m 33 702 q 104 890 33 819 q 280 962 174 962 q 456 890 386 962 q 527 702 527 818 q 456 513 527 585 q 280 442 386 442 q 106 511 179 442 q 33 702 33 579 m 1006 962 l 370 -15 l 223 -15 l 859 962 l 1006 962 "},"Ä":{"x_min":15,"x_max":1040,"ha":1055,"o":"m 477 704 l 388 443 l 557 443 l 477 704 m 388 0 l 15 0 l 15 225 l 86 225 l 263 716 l 187 716 l 187 943 l 866 943 l 866 716 l 790 716 l 970 225 l 1040 225 l 1040 0 l 547 0 l 547 207 l 630 207 l 594 326 l 352 326 l 311 207 l 388 207 l 388 0 m 829 1129 q 792 1040 829 1077 q 702 1003 754 1003 q 613 1040 650 1003 q 576 1129 576 1077 q 613 1218 576 1180 q 702 1255 651 1255 q 792 1218 755 1255 q 829 1129 829 1180 m 478 1129 q 441 1040 478 1078 q 352 1003 405 1003 q 262 1040 299 1003 q 226 1129 226 1078 q 263 1218 226 1180 q 352 1255 300 1255 q 441 1218 404 1255 q 478 1129 478 1180 "},"¸":{"x_min":71.140625,"x_max":427,"ha":463,"o":"m 71 -300 l 71 -223 q 196 -169 196 -223 q 158 -133 196 -133 q 122 -141 141 -133 l 122 -55 q 262 -17 190 -17 q 379 -55 331 -17 q 427 -153 427 -94 q 363 -263 427 -217 q 184 -311 301 -311 q 71 -300 113 -311 "},"a":{"x_min":54.890625,"x_max":1003,"ha":1042,"o":"m 578 168 l 578 288 q 481 313 532 313 q 410 288 436 313 q 384 224 384 263 q 411 159 384 184 q 474 134 438 134 q 578 168 538 134 m 322 474 l 54 501 q 197 637 99 598 q 483 677 294 677 q 608 672 553 677 q 707 659 664 668 q 841 607 797 642 q 901 529 884 571 q 918 396 918 487 l 918 206 l 1003 206 l 1003 0 l 578 0 l 578 45 q 341 -12 489 -12 q 132 49 202 -12 q 61 193 61 110 q 148 344 61 285 q 375 404 235 404 q 578 370 502 404 l 578 389 q 569 475 578 450 q 527 519 559 501 q 448 537 493 537 q 322 474 366 537 "},"—":{"x_min":-9,"x_max":1397,"ha":1389,"o":"m -9 197 l -9 459 l 1397 459 l 1397 197 l -9 197 "},"=":{"x_min":83,"x_max":845,"ha":928,"o":"m 83 229 l 83 399 l 845 399 l 845 229 l 83 229 m 83 556 l 83 724 l 845 724 l 845 556 l 83 556 "},"N":{"x_min":44,"x_max":1139,"ha":1186,"o":"m 431 0 l 44 0 l 44 225 l 126 225 l 126 716 l 44 716 l 44 943 l 491 943 l 834 450 l 834 716 l 758 716 l 758 943 l 1139 943 l 1139 716 l 1056 716 l 1056 -12 l 745 -12 l 348 558 l 348 225 l 431 225 l 431 0 "},"˚":{"x_min":82,"x_max":380,"ha":463,"o":"m 312 861 q 289 918 312 894 q 231 943 264 943 q 173 918 197 943 q 149 861 149 893 q 174 803 149 827 q 231 779 197 779 q 289 803 264 779 q 312 861 312 827 m 380 861 q 336 755 380 798 q 231 712 293 712 q 126 756 170 712 q 82 861 82 800 q 125 965 82 922 q 231 1010 169 1010 q 336 966 293 1010 q 380 861 380 923 "},"ú":{"x_min":31.640625,"x_max":1054.359375,"ha":1100,"o":"m 111 451 l 31 451 l 31 658 l 452 658 l 452 344 q 466 237 452 264 q 528 210 481 210 q 634 240 585 210 l 634 450 l 543 450 l 543 658 l 975 658 l 975 206 l 1054 206 l 1054 0 l 634 0 l 634 83 q 357 -12 499 -12 q 184 52 256 -12 q 111 295 111 116 l 111 451 m 558 726 l 397 726 l 525 972 l 839 972 l 558 726 "},"2":{"x_min":87,"x_max":848.140625,"ha":956,"o":"m 652 295 l 848 295 l 840 0 l 88 0 q 87 29 87 28 q 144 265 87 160 q 224 371 173 318 q 350 478 276 424 q 511 610 475 570 q 547 695 547 653 q 522 763 547 737 q 449 790 498 790 q 345 658 345 790 l 101 665 q 209 894 109 827 q 465 962 311 962 q 738 884 633 962 q 842 681 842 806 q 789 532 842 600 q 582 385 735 463 q 416 291 459 323 q 351 216 374 258 l 649 216 l 652 295 "},"ü":{"x_min":31.640625,"x_max":1054.359375,"ha":1100,"o":"m 111 451 l 31 451 l 31 658 l 452 658 l 452 344 q 466 237 452 264 q 528 210 481 210 q 634 240 585 210 l 634 450 l 543 450 l 543 658 l 975 658 l 975 206 l 1054 206 l 1054 0 l 634 0 l 634 83 q 357 -12 499 -12 q 184 52 256 -12 q 111 295 111 116 l 111 451 m 845 875 q 808 786 845 823 q 718 749 770 749 q 629 786 666 749 q 592 875 592 823 q 629 964 592 926 q 718 1001 667 1001 q 808 964 771 1001 q 845 875 845 926 m 494 875 q 457 786 494 824 q 368 749 421 749 q 278 786 315 749 q 242 875 242 824 q 279 964 242 926 q 368 1001 316 1001 q 457 964 420 1001 q 494 875 494 926 "},"¯":{"x_min":-8.140625,"x_max":702.640625,"ha":695,"o":"m -8 1048 l -8 1117 l 702 1117 l 702 1048 l -8 1048 "},"Z":{"x_min":40,"x_max":971.390625,"ha":1013,"o":"m 971 0 l 40 0 l 40 215 l 504 737 l 268 737 l 268 620 l 52 620 l 52 943 l 968 943 l 968 751 l 479 207 l 751 207 l 751 336 l 971 336 l 971 0 "},"u":{"x_min":31.640625,"x_max":1054.359375,"ha":1100,"o":"m 111 451 l 31 451 l 31 658 l 452 658 l 452 344 q 466 237 452 264 q 528 210 481 210 q 634 240 585 210 l 634 450 l 543 450 l 543 658 l 975 658 l 975 206 l 1054 206 l 1054 0 l 634 0 l 634 83 q 357 -12 499 -12 q 184 52 256 -12 q 111 295 111 116 l 111 451 "},"":{"x_min":47.25,"x_max":1066.25,"ha":1100,"o":"m 526 0 l 47 0 l 47 206 l 130 206 l 130 450 l 47 450 l 47 657 l 130 657 q 129 680 129 667 q 236 890 129 818 q 547 962 343 962 q 739 943 626 962 l 993 943 l 993 206 l 1066 206 l 1066 0 l 597 0 l 597 206 l 651 206 l 651 734 q 624 783 648 761 q 564 804 601 804 q 506 787 527 804 q 478 745 484 770 q 472 658 472 720 l 560 658 l 560 451 l 472 451 l 472 206 l 526 206 l 526 0 "},"˜":{"x_min":-67.828125,"x_max":531.046875,"ha":463,"o":"m 83 727 l -67 727 q -6 904 -59 842 q 118 966 44 966 q 250 928 169 966 q 323 907 300 907 q 380 968 367 907 l 531 968 q 476 793 526 859 q 342 727 425 727 q 219 761 288 727 q 144 787 166 787 q 83 727 94 787 "},"Ó":{"x_min":69,"x_max":1133,"ha":1202,"o":"m 478 473 q 509 261 478 316 q 600 206 538 206 q 692 259 662 206 q 723 473 723 313 q 693 685 723 629 q 600 741 664 741 q 509 687 539 741 q 478 473 478 633 m 69 473 q 126 702 69 591 q 303 887 183 812 q 391 929 346 913 q 489 953 436 945 q 600 962 542 962 q 993 813 854 962 q 1097 654 1062 740 q 1133 473 1133 569 q 989 130 1133 276 q 600 -15 845 -15 q 216 121 363 -15 q 69 473 69 258 m 637 1000 l 476 1000 l 604 1246 l 918 1246 l 637 1000 "},"k":{"x_min":32.640625,"x_max":976,"ha":1028,"o":"m 459 0 l 34 0 l 34 206 l 118 206 l 118 736 l 32 736 l 32 943 l 459 943 l 459 286 l 673 495 l 553 495 l 553 658 l 973 658 l 973 479 l 897 479 l 773 358 l 922 206 l 976 206 l 976 0 l 731 0 l 459 286 l 459 0 "},"ˇ":{"x_min":-71.890625,"x_max":534.4375,"ha":463,"o":"m 68 726 l -71 972 l 121 972 l 229 877 l 345 972 l 534 972 l 396 726 l 68 726 "},"Ù":{"x_min":41,"x_max":974,"ha":1013,"o":"m 113 716 l 41 716 l 41 943 l 523 943 l 523 716 l 478 716 l 478 398 q 500 243 478 284 q 578 203 522 203 q 646 237 625 203 q 667 376 667 271 l 667 716 l 619 716 l 619 943 l 974 943 l 974 716 l 899 716 l 899 374 q 861 160 899 244 q 735 31 823 78 q 518 -15 647 -15 q 335 10 415 -15 q 206 84 253 34 q 136 205 158 134 q 113 414 113 273 l 113 716 m 549 1247 l 678 1000 l 516 1000 l 236 1247 l 549 1247 "},"Ÿ":{"x_min":24.515625,"x_max":989.390625,"ha":1013,"o":"m 767 0 l 251 0 l 251 225 l 327 225 l 327 375 l 88 717 l 24 717 l 24 943 l 518 943 l 518 717 l 461 717 l 562 525 l 684 717 l 626 717 l 626 943 l 989 943 l 989 717 l 930 717 l 693 375 l 693 225 l 767 225 l 767 0 m 808 1129 q 771 1040 808 1077 q 681 1003 733 1003 q 592 1040 629 1003 q 555 1129 555 1077 q 592 1218 555 1180 q 681 1255 630 1255 q 771 1218 734 1255 q 808 1129 808 1180 m 457 1129 q 420 1040 457 1078 q 331 1003 384 1003 q 241 1040 278 1003 q 205 1129 205 1078 q 242 1218 205 1180 q 331 1255 279 1255 q 420 1218 383 1255 q 457 1129 457 1180 "},"€":{"x_min":17,"x_max":896,"ha":956,"o":"m 896 277 q 514 -12 825 -12 q 96 323 171 -12 l 17 323 l 17 432 l 83 432 q 82 471 82 444 q 83 518 82 503 l 17 518 l 17 627 l 98 627 q 231 873 134 785 q 456 962 327 962 q 682 894 595 962 l 682 943 l 872 943 l 872 644 l 675 644 q 540 761 628 761 q 463 726 497 761 q 409 627 429 692 l 582 627 l 582 518 l 393 518 q 392 473 392 505 q 393 432 392 444 l 582 432 l 582 323 l 409 323 q 544 187 448 187 q 690 341 651 187 l 896 277 "},"¢":{"x_min":62,"x_max":908,"ha":956,"o":"m 444 -116 l 444 -4 q 160 106 258 10 q 62 337 62 200 q 165 578 62 478 q 444 682 268 677 l 444 787 l 535 787 l 535 674 q 668 628 616 661 l 668 670 l 876 670 l 876 389 l 668 389 q 536 502 626 502 q 443 456 478 502 q 407 333 407 411 q 442 213 407 259 q 535 169 478 169 q 653 283 632 169 l 908 225 q 778 59 878 119 q 535 -6 677 -1 l 535 -116 l 444 -116 "},"Ω":{"x_min":97.671875,"x_max":1098.046875,"ha":1186,"o":"m 373 139 q 112 550 112 249 q 239 886 112 754 q 582 1019 366 1019 q 833 974 730 1019 q 1010 816 936 929 q 1084 550 1084 704 q 1012 292 1084 393 q 825 141 940 191 l 1049 156 l 1098 156 l 1098 0 l 662 0 l 662 164 q 870 532 870 264 q 793 784 870 697 q 592 870 716 870 q 394 774 465 870 q 323 536 323 678 q 376 310 323 411 q 535 164 430 210 l 535 0 l 97 0 l 97 155 l 164 155 l 373 139 "},"ß":{"x_min":36.578125,"x_max":1046,"ha":1100,"o":"m 510 0 l 36 0 l 36 206 l 120 206 l 120 557 q 137 745 120 684 q 213 858 154 804 q 365 936 270 911 q 576 962 459 962 q 896 898 779 962 q 1012 715 1012 834 q 970 599 1012 651 q 862 529 929 546 q 1046 280 1046 459 q 967 73 1046 158 q 744 -12 888 -12 q 584 15 657 -12 l 584 172 q 612 168 597 168 q 697 289 697 168 q 666 405 697 372 q 565 443 634 439 l 565 597 q 670 698 670 597 q 640 775 670 749 q 567 802 611 802 q 495 774 522 802 q 465 700 468 745 q 462 514 462 649 l 462 206 l 510 206 l 510 0 "},"é":{"x_min":61,"x_max":909,"ha":970,"o":"m 395 380 l 587 380 q 588 403 588 400 q 561 492 588 456 q 489 527 534 527 q 418 488 443 527 q 394 393 394 450 q 395 380 394 386 m 612 208 l 893 173 q 840 94 874 129 q 757 33 806 59 q 522 -19 659 -19 q 176 76 292 -19 q 61 325 61 171 q 175 576 61 476 q 482 677 288 677 q 786 582 669 677 q 909 295 901 487 l 391 295 q 510 135 393 135 q 612 208 580 135 m 499 726 l 338 726 l 466 972 l 780 972 l 499 726 "},"s":{"x_min":61,"x_max":793,"ha":855,"o":"m 292 -8 l 82 -8 l 82 201 l 279 201 q 445 121 355 121 q 536 158 536 121 q 516 187 536 177 q 408 219 496 198 q 252 263 338 238 q 136 316 178 284 q 77 378 92 348 q 61 458 61 409 q 138 619 61 567 q 332 670 214 670 q 537 624 454 670 l 537 658 l 745 658 l 745 467 l 553 467 q 382 535 481 535 q 304 493 304 535 q 327 467 304 474 q 457 438 347 461 q 653 385 582 412 q 758 316 723 359 q 793 209 793 272 q 708 41 793 95 q 500 -12 624 -12 q 292 33 378 -12 l 292 -8 "},"B":{"x_min":61,"x_max":1131,"ha":1186,"o":"m 508 393 l 508 207 l 590 207 q 703 227 668 207 q 737 299 737 247 q 706 370 737 347 q 588 393 676 393 l 508 393 m 508 735 l 508 564 l 588 564 q 696 587 670 564 q 721 649 721 611 q 698 708 721 682 q 575 735 676 735 l 508 735 m 594 0 l 61 0 l 61 225 l 143 225 l 143 716 l 61 716 l 61 943 l 637 943 q 900 923 807 943 q 1044 842 991 902 q 1096 698 1096 780 q 1046 571 1096 618 q 923 503 995 522 q 1076 411 1023 473 q 1131 268 1131 347 q 1069 107 1131 173 q 902 21 1008 41 q 594 0 797 0 "},"…":{"x_min":63,"x_max":1327,"ha":1389,"o":"m 1327 -1 l 989 -1 l 989 247 l 1327 247 l 1327 -1 m 401 -1 l 63 -1 l 63 247 l 401 247 l 401 -1 m 863 -1 l 526 -1 l 526 247 l 863 247 l 863 -1 "},"?":{"x_min":36,"x_max":847,"ha":882,"o":"m 585 0 l 247 0 l 247 247 l 585 247 l 585 0 m 505 367 l 328 367 l 310 579 q 390 566 344 566 q 498 601 462 566 q 533 688 533 637 q 502 771 533 739 q 418 804 471 804 q 342 778 375 804 q 308 692 308 753 l 36 692 q 155 895 42 826 q 439 962 267 962 q 746 884 645 962 q 847 691 847 805 q 751 496 847 565 q 519 427 655 427 l 505 367 "},"H":{"x_min":61.4375,"x_max":1154.21875,"ha":1215,"o":"m 560 0 l 62 0 l 62 225 l 134 225 l 134 717 l 61 717 l 61 943 l 560 943 l 560 717 l 500 717 l 500 574 l 717 574 l 717 717 l 655 717 l 655 943 l 1154 943 l 1154 717 l 1083 717 l 1083 225 l 1154 225 l 1154 0 l 655 0 l 655 226 l 717 226 l 717 381 l 500 381 l 500 226 l 560 226 l 560 0 "},"î":{"x_min":-39.890625,"x_max":566.4375,"ha":564,"o":"m 514 0 l 48 0 l 48 206 l 116 206 l 116 451 l 48 451 l 48 658 l 458 658 l 458 206 l 514 206 l 514 0 m 153 726 l -39 726 l 100 972 l 428 972 l 566 726 l 377 726 l 261 820 l 153 726 "},"c":{"x_min":62,"x_max":908,"ha":956,"o":"m 653 270 l 908 213 q 771 42 876 103 q 508 -19 664 -19 q 181 74 300 -19 q 62 325 62 168 q 173 573 62 476 q 450 670 283 670 q 668 614 591 670 l 668 658 l 876 658 l 876 377 l 668 377 q 537 490 629 490 q 440 441 474 490 q 407 321 407 392 q 443 201 407 245 q 537 157 479 157 q 653 270 632 157 "},"¶":{"x_min":118,"x_max":1013.09375,"ha":1181,"o":"m 656 767 l 656 -298 l 493 -298 l 493 370 q 214 447 310 370 q 118 650 118 523 q 153 790 118 726 q 248 888 189 853 q 363 933 307 924 q 444 940 390 938 q 588 943 498 943 l 1013 943 l 1013 767 l 929 767 l 929 -298 l 766 -298 l 766 767 l 656 767 "},"≠":{"x_min":83,"x_max":845,"ha":928,"o":"m 771 1078 l 632 724 l 845 724 l 845 556 l 566 556 l 504 399 l 845 399 l 845 229 l 438 229 l 299 -124 l 156 -124 l 295 229 l 83 229 l 83 399 l 361 399 l 424 556 l 83 556 l 83 724 l 489 724 l 628 1078 l 771 1078 "},"•":{"x_min":137,"x_max":558,"ha":695,"o":"m 347 682 q 494 622 430 682 q 558 470 558 563 q 496 323 558 385 q 346 261 435 261 q 199 322 261 261 q 137 471 137 385 q 199 620 137 559 q 347 682 261 682 "},"¥":{"x_min":24,"x_max":988,"ha":1013,"o":"m 326 226 l 326 276 l 43 276 l 43 366 l 326 366 l 326 375 l 247 488 l 43 488 l 43 579 l 184 579 l 88 717 l 24 717 l 24 943 l 517 943 l 517 717 l 460 717 l 561 525 l 682 717 l 625 717 l 625 943 l 988 943 l 988 717 l 928 717 l 832 579 l 969 579 l 969 488 l 770 488 l 691 375 l 691 366 l 969 366 l 969 276 l 691 276 l 691 226 l 766 226 l 766 -1 l 250 -1 l 250 226 l 326 226 "},"(":{"x_min":68,"x_max":582,"ha":636,"o":"m 582 -113 l 582 -290 q 391 -218 480 -267 q 223 -92 302 -170 q 68 336 68 61 q 121 615 68 500 q 296 826 175 732 q 582 962 416 919 l 582 784 q 464 674 514 766 q 413 353 413 582 q 452 31 413 132 q 582 -113 491 -69 "},"U":{"x_min":41,"x_max":974,"ha":1013,"o":"m 113 716 l 41 716 l 41 943 l 523 943 l 523 716 l 478 716 l 478 398 q 500 243 478 284 q 578 203 522 203 q 646 237 625 203 q 667 376 667 271 l 667 716 l 619 716 l 619 943 l 974 943 l 974 716 l 899 716 l 899 374 q 861 160 899 244 q 735 31 823 78 q 518 -15 647 -15 q 335 10 415 -15 q 206 84 253 34 q 136 205 158 134 q 113 414 113 273 l 113 716 "},"◊":{"x_min":31.203125,"x_max":655.15625,"ha":686,"o":"m 371 964 l 655 480 l 371 0 l 296 0 l 31 480 l 296 964 l 371 964 m 335 898 l 104 480 l 335 63 l 578 480 l 335 898 "},"Ñ":{"x_min":44,"x_max":1139,"ha":1186,"o":"m 431 0 l 44 0 l 44 225 l 126 225 l 126 716 l 44 716 l 44 943 l 491 943 l 834 450 l 834 716 l 758 716 l 758 943 l 1139 943 l 1139 716 l 1056 716 l 1056 -12 l 745 -12 l 348 558 l 348 225 l 431 225 l 431 0 m 445 1002 l 294 1002 q 355 1179 303 1117 q 480 1241 406 1241 q 612 1203 531 1241 q 685 1182 662 1182 q 742 1243 729 1182 l 893 1243 q 838 1068 888 1134 q 704 1002 787 1002 q 581 1036 650 1002 q 506 1062 528 1062 q 445 1002 456 1062 "},"F":{"x_min":33.59375,"x_max":963.859375,"ha":983,"o":"m 611 0 l 36 0 l 36 225 l 136 225 l 136 716 l 33 716 l 33 943 l 963 943 l 963 631 l 712 631 l 712 716 l 502 716 l 502 571 l 664 571 l 664 379 l 502 379 l 502 225 l 611 225 l 611 0 "},"­":{"x_min":69,"x_max":554,"ha":623,"o":"m 554 182 l 69 182 l 69 475 l 554 475 l 554 182 "},":":{"x_min":106,"x_max":445,"ha":550,"o":"m 445 0 l 106 0 l 106 247 l 445 247 l 445 0 m 445 411 l 106 411 l 106 658 l 445 658 l 445 411 "},"Û":{"x_min":41,"x_max":974,"ha":1013,"o":"m 113 716 l 41 716 l 41 943 l 523 943 l 523 716 l 478 716 l 478 398 q 500 243 478 284 q 578 203 522 203 q 646 237 625 203 q 667 376 667 271 l 667 716 l 619 716 l 619 943 l 974 943 l 974 716 l 899 716 l 899 374 q 861 160 899 244 q 735 31 823 78 q 518 -15 647 -15 q 335 10 415 -15 q 206 84 253 34 q 136 205 158 134 q 113 414 113 273 l 113 716 m 397 1000 l 204 1000 l 344 1246 l 672 1246 l 810 1000 l 621 1000 l 505 1094 l 397 1000 "},"*":{"x_min":47,"x_max":821,"ha":868,"o":"m 300 207 l 128 332 l 198 428 q 299 481 238 440 q 385 552 357 520 q 288 563 321 563 q 163 546 211 563 l 47 586 l 110 787 l 225 749 q 403 611 283 673 q 324 821 384 732 l 324 943 l 544 943 l 544 821 q 464 611 479 729 q 640 749 605 689 l 756 785 l 821 586 l 707 548 q 589 564 643 564 q 485 552 524 564 q 673 428 583 453 l 742 332 l 572 207 l 502 302 q 436 516 502 407 q 373 302 376 407 l 300 207 "},"†":{"x_min":40,"x_max":899,"ha":940,"o":"m 551 -289 l 388 -289 l 313 183 l 313 338 q 390 519 382 396 q 190 445 276 506 l 40 445 l 40 677 l 190 677 q 388 607 267 621 q 313 769 385 719 l 313 943 l 626 943 l 626 767 q 549 607 554 705 q 747 677 687 619 l 899 677 l 899 445 l 747 445 q 548 519 665 506 q 626 338 552 400 l 626 183 l 551 -289 "},"∕":{"x_min":-283,"x_max":500,"ha":216,"o":"m 500 962 l -134 -15 l -283 -15 l 352 962 l 500 962 "},"°":{"x_min":61,"x_max":494,"ha":555,"o":"m 173 742 q 204 669 173 699 q 277 639 234 639 q 350 669 320 639 q 381 742 381 699 q 350 815 381 784 q 277 845 319 845 q 204 815 235 845 q 173 742 173 784 m 61 742 q 124 895 61 831 q 277 959 189 959 q 430 895 367 959 q 494 742 494 831 q 430 589 494 652 q 277 526 367 526 q 123 590 185 526 q 61 742 61 654 "},"V":{"x_min":12,"x_max":1030,"ha":1042,"o":"m 676 -8 l 382 -8 l 81 716 l 12 716 l 12 943 l 519 943 l 519 716 l 439 716 l 579 315 l 726 716 l 649 716 l 649 943 l 1030 943 l 1030 716 l 960 716 l 676 -8 "},"å":{"x_min":54.890625,"x_max":1003,"ha":1042,"o":"m 578 168 l 578 288 q 481 313 532 313 q 410 288 436 313 q 384 224 384 263 q 411 159 384 184 q 474 134 438 134 q 578 168 538 134 m 322 474 l 54 501 q 197 637 99 598 q 483 677 294 677 q 608 672 553 677 q 707 659 664 668 q 841 607 797 642 q 901 529 884 571 q 918 396 918 487 l 918 206 l 1003 206 l 1003 0 l 578 0 l 578 45 q 341 -12 489 -12 q 132 49 202 -12 q 61 193 61 110 q 148 344 61 285 q 375 404 235 404 q 578 370 502 404 l 578 389 q 569 475 578 450 q 527 519 559 501 q 448 537 493 537 q 322 474 366 537 m 610 861 q 587 918 610 894 q 529 943 562 943 q 471 918 495 943 q 447 861 447 893 q 472 803 447 827 q 529 779 495 779 q 587 803 562 779 q 610 861 610 827 m 678 861 q 634 755 678 798 q 529 712 591 712 q 424 756 468 712 q 380 861 380 800 q 423 965 380 922 q 529 1010 467 1010 q 634 966 591 1010 q 678 861 678 923 "}," ":{"x_min":0,"x_max":0,"ha":347},"0":{"x_min":72,"x_max":883,"ha":956,"o":"m 378 476 q 405 245 378 300 q 478 191 431 191 q 551 248 525 191 q 576 476 576 304 q 549 709 576 655 q 477 762 522 762 q 406 709 432 762 q 378 476 378 655 m 72 476 q 191 834 72 707 q 477 962 311 962 q 766 830 649 962 q 883 476 883 699 q 762 117 883 242 q 477 -9 641 -9 q 188 122 305 -9 q 72 476 72 253 "},"”":{"x_min":101,"x_max":897,"ha":999,"o":"m 559 422 l 559 554 q 641 571 614 554 q 677 609 669 587 q 685 696 684 632 l 559 696 l 559 943 l 897 943 l 897 732 q 888 576 897 618 q 841 493 880 533 q 746 437 802 452 q 559 422 689 422 m 101 422 l 101 554 q 183 571 155 554 q 218 609 212 588 q 227 696 226 632 l 101 696 l 101 943 l 439 943 l 439 732 q 431 576 439 618 q 383 493 423 533 q 288 437 345 453 q 101 422 231 422 "},"¾":{"x_min":28,"x_max":1307,"ha":1346,"o":"m 943 269 l 1071 269 l 1071 382 l 943 269 m 1307 0 l 999 0 l 999 122 l 1071 122 l 1071 158 l 835 158 l 799 275 l 1067 514 l 1249 514 l 1249 269 l 1307 269 l 1307 158 l 1249 158 l 1249 122 l 1307 122 l 1307 0 m 28 634 l 188 644 q 210 582 190 595 q 263 568 232 568 q 322 611 322 568 q 232 659 322 657 l 232 761 q 286 773 262 761 q 309 805 309 784 q 258 841 309 841 q 203 786 204 841 l 37 793 q 275 962 42 962 q 448 917 394 962 q 501 814 501 874 q 445 719 501 759 q 522 602 522 679 q 455 486 522 530 q 272 442 389 442 q 28 634 30 442 m 1080 962 l 446 -14 l 297 -14 l 932 962 l 1080 962 "},"@":{"x_min":2,"x_max":1030,"ha":1028,"o":"m 333 293 q 360 168 333 211 q 436 125 388 125 q 562 263 523 125 q 602 506 602 399 q 576 605 602 567 q 505 643 550 643 q 377 522 421 643 q 333 293 333 400 m 652 727 l 786 727 l 700 191 q 697 167 697 175 q 722 141 697 141 q 812 181 763 141 q 896 299 862 221 q 930 474 930 378 q 826 753 930 647 q 552 860 722 860 q 310 793 419 860 q 152 609 201 724 q 102 365 102 493 q 225 20 102 147 q 542 -108 349 -108 q 885 18 728 -108 l 1027 18 q 929 -79 983 -37 q 809 -151 875 -121 q 543 -210 679 -210 q 260 -134 380 -210 q 71 62 141 -60 q 2 358 2 184 q 17 518 2 442 q 66 661 33 594 q 146 787 98 728 q 549 962 292 962 q 904 820 777 962 q 1030 474 1030 679 q 915 149 1030 270 q 682 27 801 27 q 576 106 595 27 q 496 44 531 62 q 415 27 462 27 q 252 105 313 27 q 191 315 191 184 q 277 616 191 484 q 484 749 362 749 q 641 651 582 749 l 652 727 "},"ö":{"x_min":60,"x_max":982,"ha":1042,"o":"m 405 331 q 517 174 405 174 q 636 332 636 174 q 607 445 636 405 q 523 485 577 485 q 437 445 470 485 q 405 331 405 406 m 60 332 q 182 577 60 477 q 511 677 304 677 q 851 580 720 677 q 982 329 982 484 q 857 80 982 180 q 527 -19 732 -19 q 183 80 306 -19 q 60 332 60 179 m 823 875 q 786 786 823 823 q 696 749 748 749 q 607 786 644 749 q 570 875 570 823 q 607 964 570 926 q 696 1001 645 1001 q 786 964 749 1001 q 823 875 823 926 m 472 875 q 435 786 472 824 q 346 749 399 749 q 256 786 293 749 q 220 875 220 824 q 257 964 220 926 q 346 1001 294 1001 q 435 964 398 1001 q 472 875 472 926 "},"i":{"x_min":49.171875,"x_max":514.96875,"ha":564,"o":"m 514 0 l 49 0 l 49 206 l 117 206 l 117 451 l 49 451 l 49 658 l 458 658 l 458 206 l 514 206 l 514 0 m 88 843 q 143 929 88 897 q 277 962 197 962 q 409 928 359 962 q 459 844 459 893 q 407 759 459 790 q 276 728 355 728 q 142 757 195 728 q 88 843 88 785 "},"≤":{"x_min":83,"x_max":845,"ha":928,"o":"m 83 -52 l 83 117 l 845 117 l 845 -52 l 83 -52 m 845 399 l 845 219 l 83 535 l 83 688 l 845 1004 l 845 824 l 317 611 l 845 399 "},"Õ":{"x_min":69,"x_max":1133,"ha":1202,"o":"m 478 473 q 509 261 478 316 q 600 206 538 206 q 692 259 662 206 q 723 473 723 313 q 693 685 723 629 q 600 741 664 741 q 509 687 539 741 q 478 473 478 633 m 69 473 q 126 702 69 591 q 303 887 183 812 q 391 929 346 913 q 489 953 436 945 q 600 962 542 962 q 993 813 854 962 q 1097 654 1062 740 q 1133 473 1133 569 q 989 130 1133 276 q 600 -15 845 -15 q 216 121 363 -15 q 69 473 69 258 m 453 1002 l 302 1002 q 363 1179 311 1117 q 488 1241 414 1241 q 620 1203 539 1241 q 693 1182 670 1182 q 750 1243 737 1182 l 901 1243 q 846 1068 896 1134 q 712 1002 795 1002 q 589 1036 658 1002 q 514 1062 536 1062 q 453 1002 464 1062 "},"þ":{"x_min":49.296875,"x_max":1051,"ha":1114,"o":"m 469 326 q 502 218 469 254 q 583 182 534 182 q 700 330 700 182 q 588 475 700 475 q 503 439 537 475 q 469 326 469 403 m 50 736 l 50 943 l 472 943 l 472 614 q 695 670 580 670 q 946 575 841 670 q 1051 324 1051 479 q 948 78 1051 169 q 680 -12 845 -12 q 472 42 558 -12 l 472 -95 l 558 -95 l 558 -302 l 49 -302 l 49 -95 l 130 -95 l 130 736 l 50 736 "},"]":{"x_min":56,"x_max":586,"ha":695,"o":"m 59 943 l 586 943 l 586 -278 l 56 -278 l 56 -17 l 252 -17 l 252 682 l 59 682 l 59 943 "},"m":{"x_min":60,"x_max":1629,"ha":1664,"o":"m 576 0 l 61 0 l 61 206 l 142 206 l 142 451 l 60 451 l 60 658 l 484 658 l 484 568 q 612 639 533 609 q 763 670 691 670 q 987 541 930 670 q 1296 670 1139 670 q 1438 633 1382 670 q 1518 534 1495 596 q 1542 355 1542 470 l 1542 206 l 1629 206 l 1629 0 l 1200 0 l 1200 283 q 1184 420 1200 393 q 1122 448 1167 448 q 1011 405 1067 448 l 1011 207 l 1103 207 l 1103 0 l 669 0 l 669 281 q 654 419 669 390 q 594 448 639 448 q 484 405 542 448 l 484 207 l 576 207 l 576 0 "},"8":{"x_min":67,"x_max":889,"ha":956,"o":"m 352 291 q 387 201 352 233 q 480 170 423 170 q 571 203 538 170 q 604 292 604 237 q 571 380 604 348 q 481 413 538 413 q 386 376 420 413 q 352 291 352 339 m 367 680 q 396 608 367 636 q 479 579 423 579 q 555 604 524 579 q 586 682 586 628 q 557 757 586 728 q 480 786 528 786 q 400 756 431 786 q 367 680 367 727 m 238 496 q 135 568 177 517 q 92 691 92 618 q 192 887 92 812 q 472 962 292 962 q 760 888 659 962 q 861 698 861 815 q 716 496 861 556 q 840 420 790 477 q 889 275 889 362 q 787 68 889 145 q 473 -9 687 -9 q 166 71 264 -9 q 67 271 67 150 q 238 496 67 432 "},"R":{"x_min":61.359375,"x_max":1163.359375,"ha":1186,"o":"m 504 737 l 504 557 l 544 557 q 652 561 623 557 q 703 588 682 566 q 724 645 724 609 q 703 703 724 681 q 650 730 682 725 q 536 737 619 737 l 504 737 m 575 0 l 61 0 l 61 225 l 138 225 l 138 716 l 61 716 l 61 943 l 573 943 q 701 940 642 943 q 802 933 760 938 q 879 921 844 929 q 1040 829 978 900 q 1103 660 1103 758 q 1065 528 1103 587 q 965 442 1027 469 l 1095 226 l 1163 226 l 1163 0 l 823 0 l 619 385 l 504 385 l 504 225 l 575 225 l 575 0 "},"á":{"x_min":54.890625,"x_max":1003,"ha":1042,"o":"m 578 168 l 578 288 q 481 313 532 313 q 410 288 436 313 q 384 224 384 263 q 411 159 384 184 q 474 134 438 134 q 578 168 538 134 m 322 474 l 54 501 q 197 637 99 598 q 483 677 294 677 q 608 672 553 677 q 707 659 664 668 q 841 607 797 642 q 901 529 884 571 q 918 396 918 487 l 918 206 l 1003 206 l 1003 0 l 578 0 l 578 45 q 341 -12 489 -12 q 132 49 202 -12 q 61 193 61 110 q 148 344 61 285 q 375 404 235 404 q 578 370 502 404 l 578 389 q 569 475 578 450 q 527 519 559 501 q 448 537 493 537 q 322 474 366 537 m 544 726 l 383 726 l 511 972 l 825 972 l 544 726 "},"×":{"x_min":101,"x_max":826,"ha":928,"o":"m 101 720 l 220 840 l 463 596 l 706 840 l 826 720 l 582 477 l 826 233 l 706 114 l 463 357 l 220 114 l 101 233 l 344 477 l 101 720 "},"o":{"x_min":60,"x_max":982,"ha":1042,"o":"m 405 331 q 517 174 405 174 q 636 332 636 174 q 607 445 636 405 q 523 485 577 485 q 437 445 470 485 q 405 331 405 406 m 60 332 q 182 577 60 477 q 511 677 304 677 q 851 580 720 677 q 982 329 982 484 q 857 80 982 180 q 527 -19 732 -19 q 183 80 306 -19 q 60 332 60 179 "},"5":{"x_min":55,"x_max":867,"ha":956,"o":"m 55 253 l 301 269 q 426 192 333 192 q 519 221 481 192 q 556 315 556 251 q 519 406 556 377 q 432 435 482 435 q 305 380 356 435 l 99 452 l 127 943 l 823 943 l 823 696 l 663 696 l 641 754 l 304 754 l 296 567 q 512 623 387 623 q 766 541 666 623 q 867 316 867 459 q 761 83 867 176 q 464 -9 654 -9 q 188 61 297 -9 q 55 253 79 131 "},"õ":{"x_min":60,"x_max":982,"ha":1042,"o":"m 405 331 q 517 174 405 174 q 636 332 636 174 q 607 445 636 405 q 523 485 577 485 q 437 445 470 485 q 405 331 405 406 m 60 332 q 182 577 60 477 q 511 677 304 677 q 851 580 720 677 q 982 329 982 484 q 857 80 982 180 q 527 -19 732 -19 q 183 80 306 -19 q 60 332 60 179 m 373 727 l 222 727 q 283 904 231 842 q 408 966 334 966 q 540 928 459 966 q 613 907 590 907 q 670 968 657 907 l 821 968 q 766 793 816 859 q 632 727 715 727 q 509 761 578 727 q 434 787 456 787 q 373 727 384 787 "},"7":{"x_min":87,"x_max":841,"ha":956,"o":"m 724 0 l 180 0 l 180 215 l 302 215 q 609 752 399 506 l 273 752 l 273 621 l 87 621 l 87 943 l 841 943 l 841 762 q 601 215 635 422 l 724 215 l 724 0 "},"K":{"x_min":62,"x_max":1162,"ha":1186,"o":"m 1162 0 l 673 0 l 673 225 l 719 225 l 512 494 l 752 717 l 675 717 l 675 943 l 1140 943 l 1140 717 l 1067 717 l 874 538 l 1115 225 l 1162 225 l 1162 0 m 575 0 l 64 0 l 64 225 l 135 225 l 135 717 l 62 717 l 62 943 l 575 943 l 575 717 l 500 717 l 500 225 l 575 225 l 575 0 "},",":{"x_min":106,"x_max":445,"ha":550,"o":"m 106 -273 l 106 -141 q 188 -124 160 -141 q 224 -86 217 -107 q 232 0 231 -63 l 106 0 l 106 247 l 445 247 l 445 36 q 436 -119 445 -77 q 389 -201 428 -161 q 293 -258 350 -242 q 106 -273 238 -273 "},"d":{"x_min":65,"x_max":1065,"ha":1114,"o":"m 640 331 q 611 434 640 393 q 527 475 583 475 q 411 325 411 475 q 439 223 411 263 q 524 183 467 183 q 608 218 575 183 q 640 331 640 254 m 1065 206 l 1065 0 l 638 0 l 638 44 q 418 -12 543 -12 q 172 72 279 -12 q 65 315 65 157 q 164 578 65 485 q 429 670 263 670 q 638 616 551 670 l 638 736 l 554 736 l 554 943 l 979 943 l 979 206 l 1065 206 "},"¨":{"x_min":-70,"x_max":533,"ha":463,"o":"m 533 875 q 496 786 533 823 q 406 749 458 749 q 317 786 354 749 q 280 875 280 823 q 317 964 280 926 q 406 1001 355 1001 q 496 964 459 1001 q 533 875 533 926 m 182 875 q 145 786 182 824 q 56 749 109 749 q -33 786 3 749 q -70 875 -70 824 q -32 964 -70 926 q 56 1001 4 1001 q 145 964 108 1001 q 182 875 182 926 "},"Ô":{"x_min":69,"x_max":1133,"ha":1202,"o":"m 478 473 q 509 261 478 316 q 600 206 538 206 q 692 259 662 206 q 723 473 723 313 q 693 685 723 629 q 600 741 664 741 q 509 687 539 741 q 478 473 478 633 m 69 473 q 126 702 69 591 q 303 887 183 812 q 391 929 346 913 q 489 953 436 945 q 600 962 542 962 q 993 813 854 962 q 1097 654 1062 740 q 1133 473 1133 569 q 989 130 1133 276 q 600 -15 845 -15 q 216 121 363 -15 q 69 473 69 258 m 491 1000 l 298 1000 l 438 1246 l 766 1246 l 904 1000 l 715 1000 l 599 1094 l 491 1000 "},"E":{"x_min":62,"x_max":963,"ha":1042,"o":"m 963 0 l 63 0 l 63 225 l 136 225 l 136 716 l 62 716 l 62 943 l 963 943 l 963 640 l 715 640 l 715 716 l 501 716 l 501 572 l 687 572 l 687 380 l 501 380 l 501 226 l 715 226 l 715 301 l 963 301 l 963 0 "},"Y":{"x_min":24.515625,"x_max":989.390625,"ha":1013,"o":"m 767 0 l 251 0 l 251 225 l 327 225 l 327 375 l 88 717 l 24 717 l 24 943 l 518 943 l 518 717 l 461 717 l 562 525 l 684 717 l 626 717 l 626 943 l 989 943 l 989 717 l 930 717 l 693 375 l 693 225 l 767 225 l 767 0 "},"\"":{"x_min":58,"x_max":637,"ha":695,"o":"m 197 469 l 163 469 l 68 769 q 58 833 58 802 q 92 921 58 884 q 180 959 127 959 q 271 921 239 959 q 303 828 303 881 q 293 769 303 803 l 197 469 m 531 469 l 497 469 l 401 769 q 391 833 391 802 q 425 921 391 883 q 514 959 459 959 q 605 921 572 959 q 637 828 637 881 q 626 769 637 803 l 531 469 "},"‹":{"x_min":52,"x_max":513,"ha":564,"o":"m 205 658 l 513 658 l 363 327 l 513 0 l 205 0 l 52 327 l 205 658 "},"˙":{"x_min":105,"x_max":358,"ha":463,"o":"m 358 875 q 321 786 358 824 q 231 749 284 749 q 141 786 178 749 q 105 875 105 824 q 142 964 105 926 q 231 1001 179 1001 q 321 964 283 1001 q 358 875 358 926 "},"ê":{"x_min":61,"x_max":909,"ha":970,"o":"m 395 380 l 587 380 q 588 403 588 400 q 561 492 588 456 q 489 527 534 527 q 418 488 443 527 q 394 393 394 450 q 395 380 394 386 m 612 208 l 893 173 q 840 94 874 129 q 757 33 806 59 q 522 -19 659 -19 q 176 76 292 -19 q 61 325 61 171 q 175 576 61 476 q 482 677 288 677 q 786 582 669 677 q 909 295 901 487 l 391 295 q 510 135 393 135 q 612 208 580 135 m 374 726 l 181 726 l 321 972 l 649 972 l 787 726 l 598 726 l 482 820 l 374 726 "},"Ï":{"x_min":16,"x_max":619,"ha":636,"o":"m 587 0 l 49 0 l 49 225 l 135 225 l 135 717 l 49 717 l 49 943 l 587 943 l 587 717 l 500 717 l 500 225 l 587 225 l 587 0 m 619 1129 q 582 1040 619 1077 q 492 1003 544 1003 q 403 1040 440 1003 q 366 1129 366 1077 q 403 1218 366 1180 q 492 1255 441 1255 q 582 1218 545 1255 q 619 1129 619 1180 m 268 1129 q 231 1040 268 1078 q 142 1003 195 1003 q 52 1040 89 1003 q 16 1129 16 1078 q 53 1218 16 1180 q 142 1255 90 1255 q 231 1218 194 1255 q 268 1129 268 1180 "},"„":{"x_min":101,"x_max":897,"ha":999,"o":"m 559 -273 l 559 -140 q 641 -124 614 -140 q 677 -85 669 -108 q 685 0 684 -63 l 559 0 l 559 247 l 897 247 l 897 36 q 888 -119 897 -77 q 841 -201 880 -161 q 746 -258 802 -243 q 559 -273 691 -273 m 101 -273 l 101 -140 q 183 -124 155 -140 q 218 -85 212 -107 q 227 0 226 -63 l 101 0 l 101 247 l 439 247 l 439 36 q 431 -119 439 -77 q 383 -201 423 -161 q 288 -258 345 -242 q 101 -273 233 -273 "},"Â":{"x_min":15,"x_max":1040,"ha":1055,"o":"m 477 704 l 388 443 l 557 443 l 477 704 m 388 0 l 15 0 l 15 225 l 86 225 l 263 716 l 187 716 l 187 943 l 866 943 l 866 716 l 790 716 l 970 225 l 1040 225 l 1040 0 l 547 0 l 547 207 l 630 207 l 594 326 l 352 326 l 311 207 l 388 207 l 388 0 m 417 1000 l 224 1000 l 364 1246 l 692 1246 l 830 1000 l 641 1000 l 525 1094 l 417 1000 "},"Í":{"x_min":49,"x_max":659.65625,"ha":636,"o":"m 587 0 l 49 0 l 49 225 l 135 225 l 135 717 l 49 717 l 49 943 l 587 943 l 587 717 l 500 717 l 500 225 l 587 225 l 587 0 m 378 1000 l 217 1000 l 345 1246 l 659 1246 l 378 1000 "},"´":{"x_min":85.453125,"x_max":527.65625,"ha":463,"o":"m 246 726 l 85 726 l 213 972 l 527 972 l 246 726 "},"ì":{"x_min":-14,"x_max":514.96875,"ha":564,"o":"m 514 0 l 48 0 l 48 206 l 116 206 l 116 451 l 48 451 l 48 658 l 458 658 l 458 206 l 514 206 l 514 0 m 299 973 l 428 726 l 266 726 l -14 973 l 299 973 "},"±":{"x_min":82.75,"x_max":845.0625,"ha":928,"o":"m 82 -30 l 82 138 l 845 138 l 845 -30 l 82 -30 m 82 516 l 82 685 l 379 685 l 379 982 l 548 982 l 548 685 l 845 685 l 845 516 l 548 516 l 548 220 l 379 220 l 379 516 l 82 516 "},"Ú":{"x_min":41,"x_max":974,"ha":1013,"o":"m 113 716 l 41 716 l 41 943 l 523 943 l 523 716 l 478 716 l 478 398 q 500 243 478 284 q 578 203 522 203 q 646 237 625 203 q 667 376 667 271 l 667 716 l 619 716 l 619 943 l 974 943 l 974 716 l 899 716 l 899 374 q 861 160 899 244 q 735 31 823 78 q 518 -15 647 -15 q 335 10 415 -15 q 206 84 253 34 q 136 205 158 134 q 113 414 113 273 l 113 716 m 578 1000 l 417 1000 l 545 1246 l 859 1246 l 578 1000 "},"|":{"x_min":359.453125,"x_max":528.328125,"ha":888,"o":"m 359 -298 l 359 962 l 528 962 l 528 -298 l 359 -298 "},"§":{"x_min":62,"x_max":879,"ha":940,"o":"m 327 462 q 287 396 287 435 q 322 327 287 356 q 444 268 356 297 q 618 200 581 220 q 658 271 658 227 q 637 329 658 302 q 583 373 616 356 q 470 412 546 390 q 327 462 359 445 m 107 -46 l 333 -46 q 374 -130 337 -102 q 482 -159 411 -159 q 603 -82 603 -159 q 573 -28 603 -49 q 424 34 544 -8 q 208 121 277 86 q 102 214 140 156 q 62 345 62 272 q 187 547 62 472 q 104 720 104 621 q 195 894 104 827 q 452 962 286 962 q 723 893 617 962 q 831 712 827 825 l 605 712 q 455 830 577 830 q 369 805 398 830 q 341 747 341 780 q 373 690 341 712 q 521 631 404 667 q 723 552 653 590 q 839 451 798 512 q 879 312 879 387 q 752 118 879 187 q 849 -44 849 49 q 754 -219 849 -148 q 481 -290 659 -290 q 205 -226 304 -290 q 106 -65 106 -161 q 107 -46 106 -53 "},"Ý":{"x_min":24.515625,"x_max":989.390625,"ha":1013,"o":"m 767 0 l 251 0 l 251 225 l 327 225 l 327 375 l 88 717 l 24 717 l 24 943 l 518 943 l 518 717 l 461 717 l 562 525 l 684 717 l 626 717 l 626 943 l 989 943 l 989 717 l 930 717 l 693 375 l 693 225 l 767 225 l 767 0 m 577 1000 l 416 1000 l 544 1246 l 858 1246 l 577 1000 "},"b":{"x_min":35,"x_max":1036,"ha":1100,"o":"m 461 331 q 579 183 461 183 q 691 330 691 183 q 659 438 691 401 q 576 475 628 475 q 491 435 520 475 q 461 331 461 393 m 464 0 l 36 0 l 36 206 l 122 206 l 122 736 l 35 736 l 35 943 l 464 943 l 464 615 q 674 669 550 669 q 933 580 831 669 q 1036 336 1036 490 q 1011 199 1036 261 q 937 88 986 137 q 690 -12 838 -12 q 464 44 558 -12 l 464 0 "},"q":{"x_min":63,"x_max":1063.8125,"ha":1114,"o":"m 638 326 q 519 475 638 475 q 408 324 408 475 q 438 219 408 257 q 523 182 469 182 q 608 222 579 182 q 638 326 638 262 m 635 658 l 1062 658 l 1062 451 l 977 451 l 977 -95 l 1063 -95 l 1063 -302 l 551 -302 l 551 -95 l 635 -95 l 635 43 q 419 -12 548 -12 q 166 76 269 -12 q 63 320 63 165 q 167 575 63 479 q 425 670 271 670 q 635 614 541 670 l 635 658 "},"Ö":{"x_min":69,"x_max":1133,"ha":1202,"o":"m 478 473 q 509 261 478 316 q 600 206 538 206 q 692 259 662 206 q 723 473 723 313 q 693 685 723 629 q 600 741 664 741 q 509 687 539 741 q 478 473 478 633 m 69 473 q 126 702 69 591 q 303 887 183 812 q 391 929 346 913 q 489 953 436 945 q 600 962 542 962 q 993 813 854 962 q 1097 654 1062 740 q 1133 473 1133 569 q 989 130 1133 276 q 600 -15 845 -15 q 216 121 363 -15 q 69 473 69 258 m 903 1129 q 866 1040 903 1077 q 776 1003 828 1003 q 687 1040 724 1003 q 650 1129 650 1077 q 687 1218 650 1180 q 776 1255 725 1255 q 866 1218 829 1255 q 903 1129 903 1180 m 552 1129 q 515 1040 552 1078 q 426 1003 479 1003 q 336 1040 373 1003 q 300 1129 300 1078 q 337 1218 300 1180 q 426 1255 374 1255 q 515 1218 478 1255 q 552 1129 552 1180 "},"z":{"x_min":56,"x_max":856,"ha":911,"o":"m 849 0 l 56 0 l 56 173 l 425 503 l 201 503 l 201 427 l 61 427 l 61 658 l 856 658 l 856 495 l 480 159 l 707 159 l 707 237 l 849 237 l 849 0 "},"™":{"x_min":16.421875,"x_max":1257,"ha":1317,"o":"m 622 391 l 622 943 l 865 943 l 941 642 l 1022 943 l 1257 943 l 1257 391 l 1107 391 l 1107 781 l 1003 391 l 878 391 l 775 781 l 775 391 l 622 391 m 16 811 l 16 943 l 558 943 l 558 811 l 367 811 l 367 391 l 207 391 l 207 811 l 16 811 "},"ã":{"x_min":54.890625,"x_max":1003,"ha":1042,"o":"m 578 168 l 578 288 q 481 313 532 313 q 410 288 436 313 q 384 224 384 263 q 411 159 384 184 q 474 134 438 134 q 578 168 538 134 m 322 474 l 54 501 q 197 637 99 598 q 483 677 294 677 q 608 672 553 677 q 707 659 664 668 q 841 607 797 642 q 901 529 884 571 q 918 396 918 487 l 918 206 l 1003 206 l 1003 0 l 578 0 l 578 45 q 341 -12 489 -12 q 132 49 202 -12 q 61 193 61 110 q 148 344 61 285 q 375 404 235 404 q 578 370 502 404 l 578 389 q 569 475 578 450 q 527 519 559 501 q 448 537 493 537 q 322 474 366 537 m 381 727 l 230 727 q 291 904 239 842 q 416 966 342 966 q 548 928 467 966 q 621 907 598 907 q 678 968 665 907 l 829 968 q 774 793 824 859 q 640 727 723 727 q 517 761 586 727 q 442 787 464 787 q 381 727 392 787 "},"æ":{"x_min":60.328125,"x_max":1436,"ha":1491,"o":"m 581 146 l 581 262 q 482 287 539 287 q 412 263 440 287 q 385 198 385 240 q 412 135 385 160 q 480 110 439 110 q 581 146 535 110 m 921 380 l 1114 380 q 1017 525 1114 525 q 921 380 921 525 m 1137 210 l 1422 175 q 1292 37 1389 93 q 1038 -19 1195 -19 q 677 104 784 -19 q 353 -19 545 -19 q 130 45 200 -19 q 60 185 60 109 q 149 335 60 276 q 369 394 237 394 q 581 362 492 394 q 583 398 583 380 q 545 513 583 483 q 448 542 508 542 q 326 476 369 542 l 61 501 q 192 632 92 587 q 488 677 293 677 q 796 633 675 677 q 1019 677 897 677 q 1322 575 1206 677 q 1436 295 1436 475 l 921 295 q 1041 135 921 135 q 1137 210 1104 135 "},"®":{"x_min":38,"x_max":1075,"ha":1114,"o":"m 457 627 l 457 482 l 510 482 q 619 499 588 482 q 650 555 650 517 q 628 605 650 584 q 513 627 605 627 l 457 627 m 457 167 l 333 167 l 333 719 l 512 719 q 669 706 619 719 q 749 657 718 694 q 780 563 780 618 q 631 408 780 441 q 744 283 684 394 q 753 268 746 282 q 780 222 761 255 l 812 167 l 661 167 l 638 211 q 541 367 571 343 q 478 389 512 389 q 457 389 465 389 l 457 167 m 556 860 q 263 738 386 860 q 140 443 140 616 q 262 149 140 271 q 557 27 385 27 q 852 149 729 27 q 975 443 975 271 q 917 654 975 555 q 763 805 860 752 q 556 860 664 860 m 556 962 q 809 895 686 962 q 1004 706 932 830 q 1075 444 1075 582 q 924 78 1075 229 q 557 -75 772 -75 q 191 78 343 -75 q 38 444 38 230 q 109 706 38 582 q 162 780 132 745 q 227 844 193 816 q 303 894 261 871 q 427 945 364 928 q 556 962 489 962 "},"É":{"x_min":62,"x_max":963,"ha":1042,"o":"m 963 0 l 63 0 l 63 225 l 136 225 l 136 716 l 62 716 l 62 943 l 963 943 l 963 640 l 715 640 l 715 716 l 501 716 l 501 572 l 687 572 l 687 380 l 501 380 l 501 226 l 715 226 l 715 301 l 963 301 l 963 0 m 523 1000 l 362 1000 l 490 1246 l 804 1246 l 523 1000 "},"~":{"x_min":74,"x_max":836,"ha":911,"o":"m 836 608 l 836 434 q 619 339 726 339 q 535 353 577 339 q 420 403 496 365 q 283 448 328 448 q 74 345 181 448 l 74 517 q 296 614 184 614 q 479 556 363 614 q 634 506 583 506 q 836 608 723 506 "},"³":{"x_min":27,"x_max":521,"ha":564,"o":"m 27 634 l 187 644 q 209 582 188 595 q 262 568 230 568 q 321 611 321 568 q 231 659 321 657 l 231 761 q 285 773 261 761 q 308 805 308 784 q 257 841 308 841 q 202 786 203 841 l 36 793 q 274 962 41 962 q 447 917 392 962 q 500 814 500 874 q 444 719 500 759 q 521 602 521 679 q 454 486 521 530 q 270 442 388 442 q 27 634 29 442 "},"¡":{"x_min":106,"x_max":445,"ha":550,"o":"m 160 279 l 392 279 l 439 -14 l 439 -285 l 111 -285 l 111 -19 l 160 279 m 106 658 l 445 658 l 445 411 l 106 411 l 106 658 "},"[":{"x_min":107,"x_max":638,"ha":695,"o":"m 634 -278 l 107 -278 l 107 943 l 638 943 l 638 682 l 442 682 l 442 -17 l 634 -17 l 634 -278 "},"L":{"x_min":50,"x_max":947,"ha":970,"o":"m 947 0 l 50 0 l 50 225 l 134 225 l 134 716 l 50 716 l 50 943 l 588 943 l 588 716 l 499 716 l 499 226 l 722 226 l 722 377 l 947 377 l 947 0 "}," ":{"x_min":0,"x_max":0,"ha":347},"∑":{"x_min":82.75,"x_max":940.015625,"ha":990,"o":"m 94 962 l 933 962 l 933 851 l 263 851 l 674 346 l 236 -187 l 940 -187 l 940 -298 l 82 -298 l 82 -172 l 503 341 l 94 843 l 94 962 "},"%":{"x_min":33,"x_max":1313,"ha":1346,"o":"m 1015 254 q 1027 146 1015 172 q 1065 121 1039 121 q 1104 150 1093 121 q 1114 253 1114 180 q 1102 361 1114 334 q 1065 387 1090 387 q 1027 361 1038 387 q 1015 254 1015 334 m 817 253 q 890 444 817 375 q 1064 514 962 514 q 1242 442 1171 514 q 1313 253 1313 370 q 1242 65 1313 137 q 1065 -6 1171 -6 q 890 62 964 -6 q 817 253 817 130 m 230 702 q 242 594 230 620 q 280 569 254 569 q 319 598 308 569 q 330 702 330 626 q 317 809 330 782 q 280 835 305 835 q 242 809 254 835 q 230 702 230 784 m 33 702 q 104 890 33 819 q 280 962 174 962 q 456 890 386 962 q 527 702 527 818 q 456 513 527 585 q 280 442 386 442 q 106 511 179 442 q 33 702 33 579 m 1064 962 l 428 -15 l 280 -15 l 916 962 l 1064 962 "},"P":{"x_min":61.4375,"x_max":1110,"ha":1143,"o":"m 519 737 l 519 558 l 589 558 q 697 576 663 558 q 730 644 730 593 q 712 700 730 677 q 667 728 695 722 q 575 737 640 737 l 519 737 m 613 -1 l 61 -1 l 61 226 l 153 226 l 153 716 l 61 716 l 61 943 l 639 943 q 931 904 838 943 q 1066 796 1023 864 q 1110 648 1110 729 q 1058 482 1110 548 q 922 386 1007 416 q 665 357 839 357 l 519 357 l 519 226 l 613 226 l 613 -1 "},"∏":{"x_min":109.875,"x_max":1033.609375,"ha":1143,"o":"m 109 962 l 1033 962 l 1033 -298 l 902 -298 l 902 844 l 240 844 l 240 -298 l 109 -298 l 109 962 "},"À":{"x_min":15,"x_max":1040,"ha":1055,"o":"m 477 704 l 388 443 l 557 443 l 477 704 m 388 0 l 15 0 l 15 225 l 86 225 l 263 716 l 187 716 l 187 943 l 866 943 l 866 716 l 790 716 l 970 225 l 1040 225 l 1040 0 l 547 0 l 547 207 l 630 207 l 594 326 l 352 326 l 311 207 l 388 207 l 388 0 m 522 1247 l 651 1000 l 489 1000 l 209 1247 l 522 1247 "},"_":{"x_min":-8.140625,"x_max":702.640625,"ha":695,"o":"m -8 -174 l -8 -105 l 702 -105 l 702 -174 l -8 -174 "},"ñ":{"x_min":47.21875,"x_max":1073,"ha":1114,"o":"m 567 0 l 47 0 l 47 206 l 132 206 l 132 451 l 47 451 l 47 658 l 473 658 l 473 574 q 742 670 598 670 q 931 600 868 670 q 995 375 995 530 l 995 206 l 1073 206 l 1073 0 l 654 0 l 654 292 q 637 418 654 387 q 570 448 620 448 q 473 413 525 448 l 473 206 l 567 206 l 567 0 m 412 727 l 261 727 q 322 904 270 842 q 447 966 373 966 q 579 928 498 966 q 652 907 629 907 q 709 968 696 907 l 860 968 q 805 793 855 859 q 671 727 754 727 q 548 761 617 727 q 473 787 495 787 q 412 727 423 787 "},"+":{"x_min":82.75,"x_max":845.0625,"ha":928,"o":"m 82 392 l 82 561 l 379 561 l 379 858 l 548 858 l 548 561 l 845 561 l 845 392 l 548 392 l 548 96 l 379 96 l 379 392 l 82 392 "},"‚":{"x_min":106,"x_max":445,"ha":550,"o":"m 106 -273 l 106 -140 q 188 -124 160 -140 q 224 -85 217 -107 q 232 0 231 -63 l 106 0 l 106 247 l 445 247 l 445 36 q 436 -119 445 -77 q 389 -201 428 -161 q 293 -258 350 -242 q 106 -273 238 -273 "},"½":{"x_min":108,"x_max":1293.109375,"ha":1346,"o":"m 1161 176 l 1293 176 l 1287 0 l 829 0 q 827 27 827 27 q 855 141 827 80 q 985 265 883 201 q 1078 332 1060 315 q 1098 368 1098 350 q 1048 401 1098 401 q 995 350 995 401 q 996 335 995 341 l 835 339 q 1059 514 837 514 q 1226 471 1164 514 q 1289 360 1289 427 q 1257 276 1289 314 q 1132 199 1224 239 q 1014 136 1036 156 l 1159 136 l 1161 176 m 457 448 l 108 448 l 108 583 l 187 583 l 187 775 q 139 772 168 772 q 108 773 125 772 l 108 903 l 129 903 q 226 922 183 903 q 286 962 268 939 l 380 962 l 380 583 l 457 583 l 457 448 m 1065 962 l 430 -14 l 281 -14 l 917 962 l 1065 962 "},"Æ":{"x_min":-17,"x_max":1444,"ha":1520,"o":"m 445 562 l 615 562 l 615 749 l 540 749 l 445 562 m 365 0 l -17 0 l -17 225 l 39 225 l 301 717 l 224 717 l 224 943 l 1444 943 l 1444 643 l 1192 643 l 1192 718 l 980 718 l 980 572 l 1168 572 l 1168 380 l 980 380 l 980 226 l 1192 226 l 1192 302 l 1444 302 l 1444 0 l 540 0 l 540 225 l 615 225 l 615 380 l 354 380 l 277 225 l 365 225 l 365 0 "},"Ë":{"x_min":62,"x_max":963,"ha":1042,"o":"m 963 0 l 63 0 l 63 225 l 136 225 l 136 716 l 62 716 l 62 943 l 963 943 l 963 640 l 715 640 l 715 716 l 501 716 l 501 572 l 687 572 l 687 380 l 501 380 l 501 226 l 715 226 l 715 301 l 963 301 l 963 0 m 814 1129 q 777 1040 814 1077 q 687 1003 739 1003 q 598 1040 635 1003 q 561 1129 561 1077 q 598 1218 561 1180 q 687 1255 636 1255 q 777 1218 740 1255 q 814 1129 814 1180 m 463 1129 q 426 1040 463 1078 q 337 1003 390 1003 q 247 1040 284 1003 q 211 1129 211 1078 q 248 1218 211 1180 q 337 1255 285 1255 q 426 1218 389 1255 q 463 1129 463 1180 "},"'":{"x_min":70,"x_max":316,"ha":386,"o":"m 209 469 l 176 469 l 80 769 q 70 833 70 802 q 104 921 70 884 q 193 959 139 959 q 284 921 251 959 q 316 828 316 881 q 305 769 316 803 l 209 469 "},"Š":{"x_min":56,"x_max":812,"ha":868,"o":"m 275 0 l 63 0 l 63 302 l 275 302 q 418 179 313 179 q 494 240 494 179 q 468 293 494 271 q 348 356 439 316 q 178 447 232 409 q 91 542 127 481 q 56 676 56 603 q 141 882 56 808 q 350 956 226 956 q 560 885 474 956 l 560 943 l 774 943 l 774 675 l 563 675 q 426 786 524 786 q 357 727 357 786 q 376 684 357 698 q 499 618 395 669 q 685 517 638 549 q 733 473 708 501 q 774 415 758 445 q 812 272 812 349 q 723 71 812 153 q 501 -12 635 -12 q 275 62 376 -12 l 275 0 m 271 1000 l 131 1246 l 324 1246 l 432 1151 l 548 1246 l 737 1246 l 599 1000 l 271 1000 "},"ª":{"x_min":19,"x_max":648,"ha":665,"o":"m 359 644 l 359 700 q 308 712 329 712 q 252 672 252 712 q 268 642 252 653 q 306 630 284 630 q 359 644 329 630 m 208 819 l 19 835 q 122 938 52 915 q 304 962 193 962 q 497 939 439 962 q 574 882 555 916 q 593 783 593 848 l 593 684 l 648 684 l 648 537 l 359 537 l 359 558 q 216 530 294 530 q 76 569 124 530 q 29 663 29 609 q 86 762 29 723 q 241 800 142 800 q 359 784 300 800 q 336 847 359 834 q 285 860 313 860 q 208 819 229 860 "},"Œ":{"x_min":72,"x_max":1527,"ha":1605,"o":"m 696 226 l 696 716 l 648 716 q 535 691 577 716 q 471 609 492 665 q 449 460 449 551 q 473 321 449 375 q 537 247 496 269 q 647 226 577 226 l 696 226 m 1278 302 l 1527 302 l 1527 -1 l 648 -1 q 332 46 452 -1 q 142 208 212 92 q 72 472 72 326 q 120 692 72 593 q 250 850 167 791 q 424 925 331 908 q 652 943 515 943 l 1527 943 l 1527 640 l 1278 640 l 1278 716 l 1061 716 l 1061 571 l 1249 571 l 1249 380 l 1061 380 l 1061 226 l 1278 226 l 1278 302 "},"˛":{"x_min":37,"x_max":432,"ha":463,"o":"m 77 18 l 221 18 q 204 -80 204 -38 q 323 -185 204 -185 q 432 -167 362 -185 l 432 -271 q 252 -303 333 -303 q 90 -257 144 -303 q 37 -144 37 -212 q 77 18 37 -81 "},"ð":{"x_min":58,"x_max":993,"ha":1053,"o":"m 521 485 q 439 447 471 485 q 407 323 407 409 q 441 209 407 245 q 520 174 474 174 q 638 336 638 174 q 606 447 638 409 q 521 485 575 485 m 288 962 l 610 962 q 663 924 639 939 l 876 962 l 891 865 l 760 839 q 993 356 993 619 q 868 87 993 194 q 514 -19 743 -19 q 179 82 300 -19 q 58 325 58 183 q 173 563 58 456 q 479 670 288 670 q 627 648 558 670 q 574 710 608 673 q 490 796 540 748 l 181 743 l 163 839 l 392 877 q 357 905 385 883 q 288 962 317 940 "},"T":{"x_min":51.46875,"x_max":987.859375,"ha":1042,"o":"m 786 0 l 255 0 l 255 225 l 337 225 l 337 716 l 228 716 l 228 546 l 51 546 l 51 943 l 987 943 l 987 546 l 810 546 l 810 716 l 703 716 l 703 225 l 786 225 l 786 0 "},"š":{"x_min":61,"x_max":793,"ha":855,"o":"m 292 -8 l 82 -8 l 82 201 l 279 201 q 445 121 355 121 q 536 158 536 121 q 516 187 536 177 q 408 219 496 198 q 252 263 338 238 q 136 316 178 284 q 77 378 92 348 q 61 458 61 409 q 138 619 61 567 q 332 670 214 670 q 537 624 454 670 l 537 658 l 745 658 l 745 467 l 553 467 q 382 535 481 535 q 304 493 304 535 q 327 467 304 474 q 457 438 347 461 q 653 385 582 412 q 758 316 723 359 q 793 209 793 272 q 708 41 793 95 q 500 -12 624 -12 q 292 33 378 -12 l 292 -8 m 264 726 l 124 972 l 317 972 l 425 877 l 541 972 l 730 972 l 592 726 l 264 726 "},"Þ":{"x_min":61.4375,"x_max":1111.765625,"ha":1143,"o":"m 519 558 l 519 380 l 590 380 q 707 405 683 380 q 731 467 731 431 q 713 523 731 500 q 668 551 696 545 q 575 558 641 558 l 519 558 m 610 0 l 61 0 l 61 125 l 153 125 l 153 817 l 61 817 l 61 943 l 610 943 l 610 817 l 519 817 l 519 764 l 641 764 q 934 724 841 764 q 1069 616 1026 684 q 1111 469 1111 547 q 1060 304 1111 370 q 923 208 1008 237 q 666 178 840 178 l 519 178 l 519 125 l 610 125 l 610 0 "},"j":{"x_min":-6.21875,"x_max":473.8125,"ha":564,"o":"m -6 -279 l -6 -94 q 87 -81 63 -94 q 117 -40 111 -68 q 124 125 124 -13 l 124 451 l 56 451 l 56 658 l 465 658 l 465 136 q 448 -96 465 -28 q 389 -207 432 -165 q 280 -268 345 -250 q 107 -286 215 -286 q -6 -279 39 -286 m 102 843 q 157 929 102 897 q 291 962 211 962 q 424 928 374 962 q 473 844 473 893 q 421 759 473 791 q 290 728 369 728 q 156 757 210 728 q 102 843 102 785 "},"1":{"x_min":211,"x_max":775,"ha":956,"o":"m 775 0 l 211 0 l 211 217 l 345 217 l 345 644 q 244 634 308 634 q 211 637 224 634 l 211 845 q 227 844 219 844 q 392 878 316 844 q 503 962 469 914 l 644 962 l 644 217 l 775 217 l 775 0 "},"›":{"x_min":52,"x_max":513,"ha":564,"o":"m 359 0 l 52 0 l 201 330 l 52 658 l 359 658 l 513 330 l 359 0 "},"ı":{"x_min":48.171875,"x_max":514.96875,"ha":564,"o":"m 514 0 l 48 0 l 48 206 l 116 206 l 116 451 l 48 451 l 48 658 l 458 658 l 458 206 l 514 206 l 514 0 "},"ä":{"x_min":54.890625,"x_max":1003,"ha":1042,"o":"m 578 168 l 578 288 q 481 313 532 313 q 410 288 436 313 q 384 224 384 263 q 411 159 384 184 q 474 134 438 134 q 578 168 538 134 m 322 474 l 54 501 q 197 637 99 598 q 483 677 294 677 q 608 672 553 677 q 707 659 664 668 q 841 607 797 642 q 901 529 884 571 q 918 396 918 487 l 918 206 l 1003 206 l 1003 0 l 578 0 l 578 45 q 341 -12 489 -12 q 132 49 202 -12 q 61 193 61 110 q 148 344 61 285 q 375 404 235 404 q 578 370 502 404 l 578 389 q 569 475 578 450 q 527 519 559 501 q 448 537 493 537 q 322 474 366 537 m 831 875 q 794 786 831 823 q 704 749 756 749 q 615 786 652 749 q 578 875 578 823 q 615 964 578 926 q 704 1001 653 1001 q 794 964 757 1001 q 831 875 831 926 m 480 875 q 443 786 480 824 q 354 749 407 749 q 264 786 301 749 q 228 875 228 824 q 265 964 228 926 q 354 1001 302 1001 q 443 964 406 1001 q 480 875 480 926 "},"<":{"x_min":83,"x_max":845,"ha":928,"o":"m 845 263 l 845 84 l 83 400 l 83 552 l 845 869 l 845 689 l 317 476 l 845 263 "},"£":{"x_min":57,"x_max":868,"ha":868,"o":"m 334 185 q 217 248 279 248 q 162 227 185 248 q 137 169 137 206 q 162 108 137 133 q 227 83 187 83 q 334 185 319 83 m 708 302 l 868 260 q 619 -9 835 -9 q 431 76 507 -9 q 244 -9 346 -9 q 111 39 165 -9 q 57 170 57 88 q 106 286 57 243 q 229 330 154 330 q 314 312 273 330 q 239 437 291 384 l 67 437 l 67 562 l 172 562 q 139 689 139 624 q 234 887 139 812 q 500 962 329 962 q 756 896 672 962 q 840 718 840 830 l 618 689 q 525 791 605 791 q 468 769 492 791 q 445 711 445 748 q 450 674 445 689 q 498 562 456 653 l 708 562 l 708 437 l 536 437 q 545 358 545 397 q 526 240 545 291 q 618 215 570 215 q 708 302 688 215 "},"¹":{"x_min":107.640625,"x_max":456.640625,"ha":564,"o":"m 456 448 l 107 448 l 107 584 l 187 584 l 187 774 q 139 771 168 771 q 107 773 125 771 l 107 904 l 128 904 q 225 922 182 904 q 285 962 267 939 l 380 962 l 380 584 l 456 584 l 456 448 "},"t":{"x_min":21.90625,"x_max":584.671875,"ha":636,"o":"m 584 240 l 584 37 q 488 -1 551 15 q 360 -19 421 -19 q 229 6 284 -19 q 144 75 173 31 q 121 121 129 100 q 110 167 114 141 q 106 340 106 212 l 106 451 l 21 451 l 21 658 l 106 658 l 106 759 l 447 921 l 447 658 l 584 658 l 584 451 l 447 451 l 447 323 q 458 240 447 261 q 504 219 469 219 q 584 240 537 219 "},"¬":{"x_min":82.75,"x_max":845.0625,"ha":928,"o":"m 82 556 l 82 724 l 845 724 l 845 229 l 676 229 l 676 556 l 82 556 "},"ù":{"x_min":31.640625,"x_max":1054.359375,"ha":1100,"o":"m 111 451 l 31 451 l 31 658 l 452 658 l 452 344 q 466 237 452 264 q 528 210 481 210 q 634 240 585 210 l 634 450 l 543 450 l 543 658 l 975 658 l 975 206 l 1054 206 l 1054 0 l 634 0 l 634 83 q 357 -12 499 -12 q 184 52 256 -12 q 111 295 111 116 l 111 451 m 560 973 l 689 726 l 527 726 l 247 973 l 560 973 "},"W":{"x_min":12,"x_max":1522,"ha":1533,"o":"m 639 -8 l 342 -8 l 77 716 l 12 716 l 12 943 l 500 943 l 500 716 l 430 716 l 541 311 l 682 716 l 612 716 l 612 943 l 1023 943 l 1023 716 l 953 716 l 1096 311 l 1209 716 l 1141 716 l 1141 943 l 1522 943 l 1522 716 l 1456 716 l 1188 -8 l 895 -8 l 768 355 l 639 -8 "},"ï":{"x_min":-19,"x_max":584,"ha":564,"o":"m 514 0 l 48 0 l 48 206 l 116 206 l 116 451 l 48 451 l 48 658 l 458 658 l 458 206 l 514 206 l 514 0 m 584 875 q 547 786 584 823 q 457 749 509 749 q 368 786 405 749 q 331 875 331 823 q 368 964 331 926 q 457 1001 406 1001 q 547 964 510 1001 q 584 875 584 926 m 233 875 q 196 786 233 824 q 107 749 160 749 q 17 786 54 749 q -19 875 -19 824 q 18 964 -19 926 q 107 1001 55 1001 q 196 964 159 1001 q 233 875 233 926 "},">":{"x_min":83,"x_max":845,"ha":928,"o":"m 83 689 l 83 869 l 845 552 l 845 400 l 83 84 l 83 263 l 610 476 l 83 689 "},"v":{"x_min":25.015625,"x_max":914.921875,"ha":940,"o":"m 610 -8 l 337 -8 l 90 451 l 25 451 l 25 658 l 489 658 l 489 451 l 415 451 l 524 201 l 640 451 l 574 451 l 574 658 l 914 658 l 914 451 l 851 451 l 610 -8 "},"û":{"x_min":31.640625,"x_max":1054.359375,"ha":1100,"o":"m 111 451 l 31 451 l 31 658 l 452 658 l 452 344 q 466 237 452 264 q 528 210 481 210 q 634 240 585 210 l 634 450 l 543 450 l 543 658 l 975 658 l 975 206 l 1054 206 l 1054 0 l 634 0 l 634 83 q 357 -12 499 -12 q 184 52 256 -12 q 111 295 111 116 l 111 451 m 433 726 l 240 726 l 380 972 l 708 972 l 846 726 l 657 726 l 541 820 l 433 726 "},"Ò":{"x_min":69,"x_max":1133,"ha":1202,"o":"m 478 473 q 509 261 478 316 q 600 206 538 206 q 692 259 662 206 q 723 473 723 313 q 693 685 723 629 q 600 741 664 741 q 509 687 539 741 q 478 473 478 633 m 69 473 q 126 702 69 591 q 303 887 183 812 q 391 929 346 913 q 489 953 436 945 q 600 962 542 962 q 993 813 854 962 q 1097 654 1062 740 q 1133 473 1133 569 q 989 130 1133 276 q 600 -15 845 -15 q 216 121 363 -15 q 69 473 69 258 m 597 1247 l 726 1000 l 564 1000 l 284 1247 l 597 1247 "},"&":{"x_min":47,"x_max":1164,"ha":1215,"o":"m 598 213 l 429 428 q 342 300 342 390 q 380 202 342 245 q 475 159 417 159 q 598 213 538 159 m 1020 225 l 1164 225 l 1164 0 l 765 0 l 708 72 q 394 -15 580 -15 q 132 63 218 -15 q 47 265 47 142 q 129 464 47 377 q 339 585 213 551 q 299 735 299 659 q 376 899 299 835 q 625 962 452 962 q 772 956 688 962 l 772 760 q 755 760 764 760 q 665 696 665 760 q 717 601 665 666 l 815 478 q 927 686 880 571 l 1164 686 l 1164 443 l 1056 443 q 956 306 1018 371 l 1020 225 "},"˝":{"x_min":-53.578125,"x_max":756.890625,"ha":463,"o":"m 476 726 l 314 726 l 442 972 l 756 972 l 476 726 m 107 726 l -53 726 l 74 972 l 388 972 l 107 726 "},"Ð":{"x_min":53.796875,"x_max":1146,"ha":1215,"o":"m 651 409 l 510 409 l 510 226 l 544 226 q 712 294 673 226 q 750 466 750 363 q 722 621 750 565 q 650 698 695 678 q 523 718 603 718 l 510 718 l 510 544 l 651 544 l 651 409 m 144 225 l 144 409 l 53 409 l 53 544 l 144 544 l 144 717 l 70 717 l 70 943 l 522 943 q 775 924 677 943 q 960 846 873 905 q 1095 684 1046 786 q 1133 580 1120 635 q 1146 463 1146 524 q 1093 239 1146 341 q 962 86 1042 139 q 793 16 885 32 q 510 0 701 0 l 70 0 l 70 225 l 144 225 "},"I":{"x_min":49,"x_max":587,"ha":636,"o":"m 587 0 l 49 0 l 49 225 l 135 225 l 135 717 l 49 717 l 49 943 l 587 943 l 587 717 l 500 717 l 500 225 l 587 225 l 587 0 "},"ˉ":{"x_min":-115.296875,"x_max":579.203125,"ha":463,"o":"m -115 779 l -115 926 l 579 926 l 579 779 l -115 779 "},"G":{"x_min":68,"x_max":1101,"ha":1173,"o":"m 776 324 l 679 324 l 679 504 l 1101 504 q 1079 273 1101 349 q 991 126 1058 201 q 831 18 925 52 q 631 -15 738 -15 q 341 37 471 -15 q 139 209 210 89 q 68 471 68 326 q 212 827 68 692 q 565 962 356 962 q 838 877 739 962 l 838 943 l 1065 943 l 1065 613 l 838 613 q 761 705 809 674 q 649 737 713 737 q 517 678 559 737 q 476 464 476 620 q 519 253 476 308 q 648 197 563 197 q 776 324 776 197 "},"`":{"x_min":-65,"x_max":377,"ha":463,"o":"m 248 973 l 377 726 l 215 726 l -65 973 l 248 973 "},"r":{"x_min":44.46875,"x_max":751.40625,"ha":753,"o":"m 575 0 l 44 0 l 44 206 l 134 206 l 134 451 l 44 451 l 44 658 l 453 658 l 453 493 q 524 599 476 554 q 617 657 570 643 q 751 670 663 670 l 751 380 q 722 381 739 381 q 567 359 618 381 q 495 303 514 338 q 475 206 476 266 l 575 206 l 575 0 "},"¿":{"x_min":36,"x_max":847,"ha":882,"o":"m 377 291 l 554 291 l 572 79 q 492 92 538 92 q 384 56 420 92 q 349 -30 349 20 q 380 -113 349 -80 q 464 -146 412 -146 q 541 -120 507 -146 q 574 -34 574 -95 l 847 -34 q 727 -237 839 -169 q 443 -305 616 -305 q 145 -231 255 -305 q 36 -33 36 -159 q 122 154 36 77 q 363 231 209 231 l 377 291 m 297 658 l 635 658 l 635 410 l 297 410 l 297 658 "},"ý":{"x_min":14,"x_max":885.890625,"ha":911,"o":"m 460 -302 l 173 -302 l 173 -101 l 283 -101 l 316 -34 l 64 451 l 14 451 l 14 658 l 462 658 l 462 451 l 389 451 l 504 193 l 609 451 l 546 451 l 546 658 l 885 658 l 885 451 l 820 451 l 460 -302 m 503 726 l 342 726 l 470 972 l 784 972 l 503 726 "},"x":{"x_min":40,"x_max":899.734375,"ha":940,"o":"m 313 0 l 54 0 l 54 206 l 137 206 l 234 312 l 118 451 l 40 451 l 40 658 l 373 658 l 493 481 l 618 658 l 876 658 l 876 451 l 783 451 l 698 355 l 823 206 l 899 206 l 899 0 l 573 0 l 446 180 l 313 0 "},"è":{"x_min":61,"x_max":909,"ha":970,"o":"m 395 380 l 587 380 q 588 403 588 400 q 561 492 588 456 q 489 527 534 527 q 418 488 443 527 q 394 393 394 450 q 395 380 394 386 m 612 208 l 893 173 q 840 94 874 129 q 757 33 806 59 q 522 -19 659 -19 q 176 76 292 -19 q 61 325 61 171 q 175 576 61 476 q 482 677 288 677 q 786 582 669 677 q 909 295 901 487 l 391 295 q 510 135 393 135 q 612 208 580 135 m 502 973 l 631 726 l 469 726 l 189 973 l 502 973 "},"º":{"x_min":29,"x_max":636,"ha":665,"o":"m 266 743 q 330 665 266 665 q 399 746 399 665 q 334 823 399 823 q 266 743 266 823 m 29 745 q 110 899 29 837 q 327 962 193 962 q 544 905 452 962 q 636 744 636 847 q 551 584 636 645 q 334 525 467 525 q 110 587 190 525 q 29 745 29 649 "},"Ø":{"x_min":69,"x_max":1133,"ha":1202,"o":"m 721 530 l 503 272 q 600 206 529 206 q 693 262 663 206 q 723 473 723 318 q 721 530 723 495 m 479 433 l 692 686 q 600 741 664 741 q 508 685 537 741 q 479 473 479 629 q 479 433 479 444 m 1023 887 l 974 830 q 1133 473 1133 684 q 989 130 1133 276 q 600 -15 845 -15 q 316 50 430 -15 l 263 -12 l 166 62 l 217 122 q 69 464 69 258 q 213 817 69 672 q 600 962 357 962 q 873 901 758 962 l 928 965 l 1023 887 "},"∞":{"x_min":12.203125,"x_max":798.265625,"ha":810,"o":"m 370 541 q 590 696 461 696 q 737 634 677 696 q 798 459 798 571 q 737 285 798 347 q 590 223 677 223 q 370 377 461 223 q 283 294 337 327 q 176 261 228 261 q 57 317 103 261 q 12 459 12 374 q 57 601 12 544 q 176 657 102 657 q 283 624 228 657 q 370 541 337 592 m 434 461 q 520 348 491 373 q 592 322 550 322 q 670 360 641 322 q 699 461 699 397 q 669 562 699 527 q 594 596 638 596 q 434 461 518 596 m 312 462 q 183 557 247 557 q 129 533 151 557 q 107 465 107 508 q 127 394 107 423 q 183 365 147 365 q 312 462 238 365 "},"÷":{"x_min":82.75,"x_max":845.0625,"ha":928,"o":"m 464 292 q 533 264 504 292 q 563 192 563 235 q 533 122 563 151 q 464 93 504 93 q 395 122 423 93 q 366 192 366 150 q 395 263 366 234 q 464 292 424 292 m 82 398 l 82 556 l 845 556 l 845 398 l 82 398 m 464 859 q 533 831 504 859 q 563 760 563 802 q 534 691 563 719 q 464 662 505 662 q 395 691 424 662 q 366 760 366 719 q 395 831 366 802 q 464 859 425 859 "},"h":{"x_min":30.859375,"x_max":1055.3125,"ha":1100,"o":"m 550 0 l 30 0 l 30 206 l 117 206 l 117 736 l 30 736 l 30 943 l 458 943 l 458 579 q 726 670 594 670 q 910 602 842 670 q 978 363 978 535 l 978 206 l 1055 206 l 1055 0 l 637 0 l 637 269 q 622 422 637 391 q 560 454 607 454 q 458 419 510 454 l 458 206 l 550 206 l 550 0 "},".":{"x_min":105.796875,"x_max":444.234375,"ha":550,"o":"m 444 0 l 105 0 l 105 247 l 444 247 l 444 0 "},";":{"x_min":106,"x_max":445,"ha":550,"o":"m 106 -273 l 106 -140 q 188 -124 160 -140 q 224 -85 217 -107 q 232 0 231 -63 l 106 0 l 106 247 l 445 247 l 445 36 q 436 -119 445 -77 q 389 -201 428 -161 q 293 -258 350 -242 q 106 -273 238 -273 m 445 411 l 106 411 l 106 658 l 445 658 l 445 411 "},"f":{"x_min":49,"x_max":671,"ha":636,"o":"m 581 0 l 49 0 l 49 206 l 132 206 l 132 451 l 49 451 l 49 658 l 132 658 l 132 673 q 176 838 132 776 q 291 930 219 899 q 526 962 363 962 q 671 959 599 962 l 671 776 q 586 780 622 780 q 513 768 539 780 q 479 733 487 755 q 470 658 470 713 l 596 658 l 596 451 l 470 451 l 470 206 l 581 206 l 581 0 "},"“":{"x_min":101,"x_max":897,"ha":999,"o":"m 439 943 l 439 810 q 356 794 384 810 q 321 755 328 777 q 312 669 313 734 l 439 669 l 439 422 l 101 422 l 101 632 q 109 789 101 747 q 156 872 117 831 q 252 928 195 912 q 439 943 307 943 m 897 943 l 897 810 q 814 794 842 810 q 779 755 785 778 q 770 669 771 733 l 897 669 l 897 422 l 559 422 l 559 632 q 567 789 559 747 q 614 872 575 831 q 710 928 654 912 q 897 943 765 943 "},"A":{"x_min":15,"x_max":1040,"ha":1055,"o":"m 477 704 l 388 443 l 557 443 l 477 704 m 388 0 l 15 0 l 15 225 l 86 225 l 263 716 l 187 716 l 187 943 l 866 943 l 866 716 l 790 716 l 970 225 l 1040 225 l 1040 0 l 547 0 l 547 207 l 630 207 l 594 326 l 352 326 l 311 207 l 388 207 l 388 0 "},"6":{"x_min":82,"x_max":881,"ha":956,"o":"m 377 394 q 501 180 377 180 q 599 303 599 180 q 571 398 599 362 q 495 434 544 434 q 377 394 437 434 m 872 727 l 637 706 q 522 783 603 783 q 381 564 388 783 q 576 621 463 621 q 792 538 702 621 q 881 322 881 453 q 772 81 881 172 q 511 -9 663 -9 q 204 118 324 -9 q 82 486 82 244 q 193 831 82 699 q 521 962 303 962 q 755 902 663 962 q 872 727 847 842 "},"‘":{"x_min":106,"x_max":445,"ha":550,"o":"m 445 943 l 445 810 q 362 794 389 810 q 326 755 333 777 q 317 669 319 734 l 445 669 l 445 422 l 106 422 l 106 632 q 114 789 106 747 q 161 872 122 831 q 257 928 201 912 q 445 943 312 943 "},"π":{"x_min":25.765625,"x_max":928.484375,"ha":955,"o":"m 25 720 l 928 720 l 928 583 l 813 583 l 813 0 l 618 0 l 618 583 l 337 583 l 337 0 l 139 0 l 139 583 l 25 583 l 25 720 "},"O":{"x_min":69,"x_max":1133,"ha":1202,"o":"m 478 473 q 509 261 478 316 q 600 206 538 206 q 692 259 662 206 q 723 473 723 313 q 693 685 723 629 q 600 741 664 741 q 509 687 539 741 q 478 473 478 633 m 69 473 q 126 702 69 591 q 303 887 183 812 q 391 929 346 913 q 489 953 436 945 q 600 962 542 962 q 993 813 854 962 q 1097 654 1062 740 q 1133 473 1133 569 q 989 130 1133 276 q 600 -15 845 -15 q 216 121 363 -15 q 69 473 69 258 "},"n":{"x_min":47.21875,"x_max":1073,"ha":1114,"o":"m 567 0 l 47 0 l 47 206 l 132 206 l 132 451 l 47 451 l 47 658 l 473 658 l 473 574 q 742 670 598 670 q 931 600 868 670 q 995 375 995 530 l 995 206 l 1073 206 l 1073 0 l 654 0 l 654 292 q 637 418 654 387 q 570 448 620 448 q 473 413 525 448 l 473 206 l 567 206 l 567 0 "},"3":{"x_min":63,"x_max":871,"ha":956,"o":"m 63 320 l 307 338 q 447 188 313 188 q 534 219 505 188 q 561 297 561 251 q 408 418 561 412 l 408 571 q 497 598 455 571 q 538 679 538 625 q 511 749 538 722 q 438 775 483 775 q 334 668 341 775 l 79 682 q 189 892 87 822 q 464 962 290 962 q 744 886 651 962 q 837 697 837 809 q 797 578 837 630 q 691 505 758 525 q 823 427 776 486 q 871 282 871 367 q 758 68 871 146 q 462 -9 645 -9 q 172 71 277 -9 q 63 320 68 151 "},"9":{"x_min":75,"x_max":874,"ha":956,"o":"m 579 559 q 454 773 579 773 q 356 649 356 773 q 385 553 356 586 q 460 519 414 519 q 579 559 519 519 m 83 225 l 319 245 q 433 169 351 169 q 574 388 568 169 q 379 330 492 330 q 164 414 252 330 q 75 630 75 499 q 186 873 75 784 q 445 962 296 962 q 752 836 630 962 q 874 466 874 708 q 762 121 874 253 q 434 -9 652 -9 q 203 49 296 -9 q 83 225 109 107 "},"l":{"x_min":46.140625,"x_max":517.359375,"ha":564,"o":"m 517 0 l 46 0 l 46 206 l 116 206 l 116 736 l 46 736 l 46 943 l 457 943 l 457 206 l 517 206 l 517 0 "},"¤":{"x_min":99,"x_max":829,"ha":928,"o":"m 298 751 q 463 798 376 798 q 629 751 551 798 l 718 841 l 829 731 l 739 642 q 785 476 785 563 q 739 310 785 389 l 829 221 l 718 111 l 629 200 q 464 155 551 155 q 298 200 374 155 l 208 111 l 99 221 l 188 310 q 142 476 142 387 q 188 642 142 564 l 99 731 l 208 841 l 298 751 m 463 644 q 345 595 395 644 q 296 476 296 546 q 345 357 296 406 q 463 308 394 308 q 582 357 532 308 q 632 476 632 406 q 582 595 632 546 q 463 644 532 644 "},"":{"x_min":47.25,"x_max":1066.609375,"ha":1100,"o":"m 526 0 l 47 0 l 47 206 l 130 206 l 130 450 l 47 450 l 47 657 l 130 657 q 166 824 131 764 q 300 923 201 884 q 555 962 399 962 q 985 776 920 962 l 652 737 q 623 786 648 766 q 561 807 598 807 q 491 773 510 807 q 472 657 472 739 l 992 657 l 992 206 l 1066 206 l 1066 0 l 598 0 l 598 206 l 650 206 l 650 451 l 472 451 l 472 206 l 526 206 l 526 0 "},"∂":{"x_min":32.5625,"x_max":665.34375,"ha":695,"o":"m 259 761 l 166 818 q 271 964 201 918 q 417 1011 341 1011 q 594 921 523 1011 q 665 638 665 832 q 612 307 665 471 q 461 63 560 143 q 244 -16 363 -16 q 90 46 147 -16 q 32 222 32 110 q 170 519 32 398 q 536 639 309 639 q 562 638 544 639 q 523 824 562 760 q 414 887 483 887 q 259 761 321 887 m 554 514 q 527 514 535 514 q 280 430 372 514 q 187 229 187 345 q 214 146 187 181 q 283 111 241 111 q 453 220 376 111 q 554 514 531 328 "},"4":{"x_min":44,"x_max":873,"ha":956,"o":"m 239 478 l 494 478 l 494 736 l 239 478 m 873 0 l 380 0 l 380 190 l 494 190 l 494 310 l 96 310 l 44 506 l 484 962 l 776 962 l 776 478 l 873 478 l 873 310 l 776 310 l 776 190 l 873 190 l 873 0 "},"p":{"x_min":49.296875,"x_max":1051,"ha":1114,"o":"m 468 326 q 501 218 468 254 q 582 182 533 182 q 699 330 699 182 q 587 475 699 475 q 503 439 536 475 q 468 326 468 403 m 50 451 l 50 658 l 471 658 l 471 614 q 694 670 579 670 q 946 575 841 670 q 1051 324 1051 479 q 948 78 1051 169 q 680 -12 845 -12 q 471 42 557 -12 l 471 -95 l 557 -95 l 557 -302 l 49 -302 l 49 -95 l 130 -95 l 130 451 l 50 451 "},"‡":{"x_min":52,"x_max":845,"ha":897,"o":"m 601 -289 l 292 -289 l 292 -112 q 363 43 352 -62 q 201 -25 264 31 l 52 -25 l 52 207 l 201 207 q 363 140 267 146 q 269 325 358 263 q 365 516 362 387 q 201 444 265 503 l 52 444 l 52 676 l 201 676 q 363 606 256 616 q 290 764 356 715 l 290 943 l 601 943 l 601 764 q 528 606 535 715 q 693 676 639 616 l 845 676 l 845 444 l 690 444 q 526 516 625 503 q 624 325 529 391 q 553 260 575 299 q 528 140 532 220 q 690 207 623 146 l 845 207 l 845 -25 l 693 -25 q 528 43 618 43 q 601 -112 537 -63 l 601 -289 "},"à":{"x_min":54.890625,"x_max":1003,"ha":1042,"o":"m 578 168 l 578 288 q 481 313 532 313 q 410 288 436 313 q 384 224 384 263 q 411 159 384 184 q 474 134 438 134 q 578 168 538 134 m 322 474 l 54 501 q 197 637 99 598 q 483 677 294 677 q 608 672 553 677 q 707 659 664 668 q 841 607 797 642 q 901 529 884 571 q 918 396 918 487 l 918 206 l 1003 206 l 1003 0 l 578 0 l 578 45 q 341 -12 489 -12 q 132 49 202 -12 q 61 193 61 110 q 148 344 61 285 q 375 404 235 404 q 578 370 502 404 l 578 389 q 569 475 578 450 q 527 519 559 501 q 448 537 493 537 q 322 474 366 537 m 546 973 l 675 726 l 513 726 l 233 973 l 546 973 "},"Ü":{"x_min":41,"x_max":974,"ha":1013,"o":"m 113 716 l 41 716 l 41 943 l 523 943 l 523 716 l 478 716 l 478 398 q 500 243 478 284 q 578 203 522 203 q 646 237 625 203 q 667 376 667 271 l 667 716 l 619 716 l 619 943 l 974 943 l 974 716 l 899 716 l 899 374 q 861 160 899 244 q 735 31 823 78 q 518 -15 647 -15 q 335 10 415 -15 q 206 84 253 34 q 136 205 158 134 q 113 414 113 273 l 113 716 m 809 1129 q 772 1040 809 1077 q 682 1003 734 1003 q 593 1040 630 1003 q 556 1129 556 1077 q 593 1218 556 1180 q 682 1255 631 1255 q 772 1218 735 1255 q 809 1129 809 1180 m 458 1129 q 421 1040 458 1078 q 332 1003 385 1003 q 242 1040 279 1003 q 206 1129 206 1078 q 243 1218 206 1180 q 332 1255 280 1255 q 421 1218 384 1255 q 458 1129 458 1180 "},"ó":{"x_min":60,"x_max":982,"ha":1042,"o":"m 405 331 q 517 174 405 174 q 636 332 636 174 q 607 445 636 405 q 523 485 577 485 q 437 445 470 485 q 405 331 405 406 m 60 332 q 182 577 60 477 q 511 677 304 677 q 851 580 720 677 q 982 329 982 484 q 857 80 982 180 q 527 -19 732 -19 q 183 80 306 -19 q 60 332 60 179 m 536 726 l 375 726 l 503 972 l 817 972 l 536 726 "},"√":{"x_min":59,"x_max":764.359375,"ha":767,"o":"m 714 1267 l 764 1267 l 552 -52 l 216 639 l 82 577 l 59 621 l 263 723 l 537 165 l 714 1267 "}}}
